<svg xmlns="http://www.w3.org/2000/svg" id="svg" width="1440" height="216" fill="none" version="1.1"><defs id="defs"><linearGradient id="linearGradient39" x1="845.24" x2="845.24" y1="326.9" y2="673.1" gradientUnits="userSpaceOnUse"><stop id="stop1" offset="0" stop-color="#89dceb"/><stop id="stop2" offset="1" stop-color="#a6e3a1"/></linearGradient><linearGradient id="linearGradient12" x1="536.79" x2="533.06" y1="160.52" y2="58.449" gradientUnits="userSpaceOnUse"><stop id="stop3" offset="0" stop-color="#3a3a3a"/><stop id="stop4" offset="1" stop-color="#3a3a3a" stop-opacity="0"/></linearGradient><linearGradient id="linearGradient14" x1="903.21" x2="906.94" y1="55.484" y2="157.55" gradientUnits="userSpaceOnUse"><stop id="stop5" offset="0" stop-color="#3a3a3a"/><stop id="stop6" offset="1" stop-color="#3a3a3a" stop-opacity="0"/></linearGradient><style><![CDATA[@keyframes float{0%,to{transform:translateY(0)}50%{transform:translateY(20px)}}@keyframes spin{0%{transform:rotateZ(360deg)}to{transform:rotateZ(0deg)}}@keyframes slideInFromLeft{0%{transform:translateX(-100%);opacity:0}to{transform:translateX(0);opacity:1}}@keyframes slideInFromRight{0%{transform:translateX(100%);opacity:0}to{transform:translateX(0);opacity:1}}#g1>*{animation:float 4s ease-in-out infinite;transform-origin:center}]]></style></defs><path id="path1" fill="#3a3a3a" fill-rule="evenodd" stroke-width="2.328" d="M30 0h1380a30 30 45 0 1 30 30v156a30 30 135 0 1-30 30H30a30 30 45 0 1-30-30V30A30 30 135 0 1 30 0z"/><path id="path2" fill="#171717" fill-rule="evenodd" stroke-width="2.328" d="M31.5 1.5h1377a30 30 45 0 1 30 30v153a30 30 135 0 1-30 30H31.5a30 30 45 0 1-30-30v-153a30 30 135 0 1 30-30z"/><g id="g1" stroke-width="12.901" transform="translate(603.73 -8.272) scale(.23254)"><path id="path3" fill="none" stroke="#3a3a3a" d="M332.73 334.79 167.52 665.22h79.801l132.9-265.8-32.312-64.627z"/><path id="path4" fill="none" stroke="#3a3a3a" d="m427.71 334.79 32.312 64.625-132.9 265.8h79.801l132.98-265.96-32.234-64.471z"/><path id="path5" fill="url(#linearGradient39)" stroke="#f6f6f6" d="m587.47 334.78 165.22 330.43h79.8L667.27 334.78zm-7.67 144.26-39.98 79.955-17.5 35.011-22.4 44.794-13.201 26.409h79.8l35.6-71.203 17.582-35.166z" style="paint-order:normal"/></g><g fill-rule="evenodd" style="animation:spin 5s linear infinite;transform-origin:center;transform-box:fill-box"><path id="path6" fill="url(#linearGradient14)" stroke-width="2.328" d="M906.17 55.484a2.965 2.965 0 0 0-2.965 2.965 2.965 2.965 0 0 0 2.885 2.931c3.756 14.94 5.92 30.511 5.92 46.62 0 17.154-2.38 33.73-6.607 49.55h1.537c4.204-15.825 6.57-32.399 6.57-49.55 0-16.29-2.191-32.037-6.008-47.138a2.965 2.965 0 0 0 1.635-2.414 2.965 2.965 0 0 0-2.967-2.964z"/><path id="path7" fill="url(#linearGradient12)" d="M533.06 58.449c-4.205 15.825-6.57 32.398-6.57 49.551 0 16.29 2.191 32.036 6.007 47.137a2.965 2.965 0 0 0-1.634 2.414 2.965 2.965 0 0 0 5.931 0 2.965 2.965 0 0 0-2.89-2.953c-3.753-14.933-5.914-30.497-5.914-46.598 0-17.156 2.379-33.731 6.607-49.551z"/></g><path fill="#3a3a3a" fill-rule="evenodd" stroke-linecap="round" stroke-linejoin="round" stroke-width="6" d="M299.16 117q-2.424 0-3.864-1.344-1.416-1.368-1.416-3.744v-7.848q0-2.352 1.416-3.696Q296.736 99 299.16 99q2.4 0 3.816 1.368 1.44 1.368 1.44 3.696h-2.376q0-1.416-.768-2.184t-2.112-.768q-1.368 0-2.136.768t-.768 2.184v7.848q0 1.44.768 2.208t2.136.768q1.344 0 2.112-.768t.768-2.208h2.376q0 2.352-1.44 3.72Q301.56 117 299.16 117zm20.08-.24V99.24h2.376v15.36h7.8v2.16zm23.656 0V99.24h10.2v2.136h-7.848v5.208h7.008v2.064h-7.008v5.976h7.848v2.136zm28.096 0v-6.504l-5.256-11.016h2.52l3.24 6.912q.288.624.456 1.128.192.504.24.72l.24-.72q.192-.504.504-1.128l3.216-6.912h2.448l-5.232 11.016v6.504zm19.48 0 4.536-17.52h3.144l4.512 17.52h-2.424l-1.104-4.56H394l-1.104 4.56zm4.008-6.528h4.176L397.408 105q-.36-1.44-.576-2.448t-.264-1.368q-.048.36-.264 1.368t-.552 2.424zm21.352 6.528V99.24h3.072l5.232 14.784q-.072-.624-.144-1.536-.048-.936-.096-1.92-.024-1.008-.024-1.896V99.24h2.256v17.52h-3.096l-5.184-14.784q.048.624.096 1.536.048.888.072 1.872.048.984.048 1.848v9.528z" aria-label="CLEYAN" style="paint-order:stroke fill markers;white-space:pre;animation:slideInFromLeft .7s ease-out"/><path fill="#3a3a3a" fill-rule="evenodd" stroke-linecap="round" stroke-linejoin="round" stroke-width="6" d="M1010.7 116.25q-2.376 0-3.784-1.232-1.408-1.254-1.408-3.432h2.178q0 1.276.814 2.002t2.2.726q1.32 0 2.09-.726.792-.748.792-1.98 0-.924-.506-1.606-.506-.704-1.43-.946l-2.376-.638q-1.562-.44-2.486-1.584-.902-1.166-.902-2.75 0-1.298.572-2.266.594-.99 1.65-1.518 1.056-.55 2.442-.55 1.408 0 2.464.55 1.078.528 1.672 1.496.594.968.594 2.244h-2.156q0-1.056-.726-1.716-.704-.66-1.848-.66t-1.848.66q-.682.66-.682 1.716 0 .858.462 1.452.462.572 1.298.814l2.442.66q1.65.44 2.574 1.694.924 1.232.924 2.948 0 1.408-.616 2.464-.616 1.034-1.76 1.606-1.122.572-2.64.572zm17.524-.22 4.158-16.06h2.882l4.136 16.06h-2.222l-1.012-4.18h-4.708l-1.012 4.18zm3.674-5.984h3.828l-1.144-4.796q-.33-1.32-.528-2.244-.198-.924-.242-1.254-.044.33-.242 1.254-.198.924-.506 2.222zm20.01 5.984V99.97h3.08l1.98 6.93 2.068-6.93h3.102v16.06h-2.09v-7.37q0-1.166.044-2.574.044-1.43.11-2.838.088-1.43.176-2.574l-2.508 8.228h-1.848l-2.42-8.03q.198 1.606.286 3.586.088 1.958.088 4.202v7.37zm23.64 0V99.97h5.214q1.54 0 2.662.594 1.122.594 1.738 1.672.616 1.056.616 2.53 0 1.452-.616 2.53-.616 1.056-1.76 1.65-1.122.594-2.64.594h-3.036v6.49zm2.178-8.426h3.036q1.276 0 2.024-.77.748-.792.748-2.068 0-1.298-.748-2.068-.748-.792-2.024-.792h-3.036zm20.098 8.426 4.158-16.06h2.882l4.136 16.06h-2.222l-1.012-4.18h-4.708l-1.012 4.18zm3.674-5.984h3.828l-1.144-4.796q-.33-1.32-.528-2.244-.198-.924-.242-1.254-.044.33-.242 1.254-.198.924-.506 2.222zm20.736 5.984v-1.98h3.278v-12.1h-3.278v-1.98h8.756v1.98h-3.278v12.1h3.278v1.98zm27.578.22q-2.2 0-3.476-1.276t-1.276-3.608v-6.754q0-2.31 1.276-3.586 1.276-1.276 3.476-1.276t3.476 1.276q1.276 1.254 1.276 3.586v6.754q0 2.332-1.276 3.608t-3.476 1.276zm0-1.936q1.232 0 1.892-.704.682-.704.682-2.024v-7.194q0-1.298-.66-2.002t-1.914-.704-1.914.704-.66 2.002v7.194q0 1.32.66 2.024.682.704 1.914.704z" aria-label="SAMPAIO" style="paint-order:stroke fill markers;white-space:pre;animation:slideInFromRight .7s ease-out"/></svg>
