<?xml version="1.0" encoding="UTF-8" standalone="no"?>
<svg xml:space="preserve" width="1500" height="350" fill="none" version="1.1" id="svg10" sodipodi:docname="banner.svg" inkscape:version="1.3.2 (091e20e, 2023-11-25, custom)" xmlns:inkscape="http://www.inkscape.org/namespaces/inkscape" xmlns:sodipodi="http://sodipodi.sourceforge.net/DTD/sodipodi-0.dtd" xmlns="http://www.w3.org/2000/svg" xmlns:svg="http://www.w3.org/2000/svg"><sodipodi:namedview id="namedview10" pagecolor="#505050" bordercolor="#ffffff" borderopacity="1" inkscape:showpageshadow="0" inkscape:pageopacity="0" inkscape:pagecheckerboard="1" inkscape:deskcolor="#505050" inkscape:current-layer="svg10" /><defs id="defs2"><filter id="b" width="1.5318391" height="1.5815362" x="-0.26591956" y="-0.29076811" style="color-interpolation-filters:sRGB"><feGaussianBlur result="result6" stdDeviation="7" id="feGaussianBlur1" /><feComposite in="SourceGraphic" in2="result6" operator="atop" result="result8" id="feComposite1" /><feComposite in="result8" in2="SourceAlpha" result="result9" id="feComposite2" /><feColorMatrix result="result10" values="1 0 0 0 0 0 1 0 0 0 0 0 1 0 0 0 0 0 1 0" id="feColorMatrix2" /><feBlend in="result10" in2="result6" id="feBlend2" /></filter></defs><path d="m 24,105.82275 h 1452 a 24,9.4871662 0 0 1 24,9.48716 v 119.38018 a 24,9.4871662 0 0 1 -24,9.48716 H 24 A 24,9.4871662 0 0 1 0,234.69009 V 115.30991 a 24,9.4871662 0 0 1 24,-9.48716" style="fill:#171717;fill-opacity:1;fill-rule:evenodd;stroke-width:0.628728" id="path1" /><g fill="#ffffff" style="display:inline" id="g8" transform="translate(2.2491322,-0.57899828)"><path d="m 557.854,204.468 h 13.207 l 16.674,-44.085 16.432,44.085 h 13.779 l -22.95,-57.778 h -13.699 z m 118.523,-57.863 v 33.596 c 0,15.353 -9.492,24.845 -24.763,24.845 -15.435,0 -25.012,-9.492 -25.012,-24.845 v -33.596 h 12.96 v 33.596 c 0,8.089 4.87,13.538 12.135,13.538 7.18,0 11.804,-5.283 11.804,-13.455 v -33.596 z m 62.431,57.788 h -14.61 L 713.963,185.49 h -8.337 v 18.903 h -12.959 v -57.78 h 23.608 c 13.866,0 21.792,6.19 21.792,18.902 0,9.74 -4.128,15.848 -11.64,18.49 z M 725.932,166.01 c 0,-6.357 -3.714,-8.75 -10.4,-8.75 h -9.989 v 17.665 h 9.988 c 6.604,0 10.401,-2.477 10.401,-8.915" class="c1" style="font-variant-ligatures:normal;stroke-width:0;stroke-miterlimit:2" id="path3" transform="translate(13.838)" sodipodi:nodetypes="cccccccccsssccssscccccccccsscccsccsc" /><path d="m 1791,911.84 -25.695,50.83 c 0,0 -12.216,-1.826 -12.075,-19.377 l 16.008,-31.452 H 1791 Z m -68.1,0 34.401,66.696 v 31.592 h -21.903 v -30.89 l -34.262,-67.399 z" style="font-variant-ligatures:normal" transform="matrix(0.58787,0,0,0.58787,-239.443,-389.356)" id="path4" /><path d="M 73.79,125.2 H 85.311 L 99.856,86.743 114.19,125.2 h 12.02 L 106.19,74.798 H 94.24 Z" class="c1" style="font-variant-ligatures:normal" transform="matrix(1.14634,0,0,1.14634,728.306,60.946)" id="path5" sodipodi:nodetypes="cccccccc" /><path d="m 1991.3,1010 h -24.853 l -17.411,-32.154 h -14.181 V 1010 h -22.044 v -98.288 h 40.158 c 23.588,0 37.069,10.532 37.069,32.155 0,16.568 -7.021,26.959 -19.799,31.452 z m -21.903,-65.291 c 0,-10.813 -6.318,-14.884 -17.693,-14.884 h -16.99 v 30.048 h 16.99 c 11.234,0 17.693,-4.212 17.693,-15.164" class="c1" style="font-variant-ligatures:normal" transform="matrix(0.58787,0,0,0.58787,-239.443,-389.356)" id="path6" /><path d="m 2103.7,1010.3 h -26.397 l -17.973,-28.224 c 2.807,-16.989 16.708,-15.024 16.708,-15.024 z" style="font-variant-ligatures:normal" transform="matrix(0.58787,0,0,0.58787,-239.443,-389.356)" id="path7" /><path d="m 2100.9,911.84 -62.764,74.279 v 24.009 H 2016.09 V 911.84 h 22.046 v 45.213 l 37.631,-45.213 z" style="font-variant-ligatures:normal" transform="matrix(0.58787,0,0,0.58787,-239.443,-389.356)" id="path8" /></g><g style="display:inline;fill:#02f383;fill-opacity:1" id="g10" transform="translate(14.215749,-0.57899828)"><path d="m 566.253,146.69 h -10.235 l -25.256,57.778 h 10.234 z m -27.686,0 h -10.235 l -25.256,57.778 h 10.234 z" style="font-variant-ligatures:normal;display:inline;opacity:0.2;fill:#02f383;fill-opacity:1;stroke-width:0.659186;filter:url(#b)" id="path9" /><path d="m 566.253,146.69 h -10.235 l -25.256,57.778 h 10.234 z m -27.686,0 h -10.235 l -25.256,57.778 h 10.234 z" style="font-variant-ligatures:normal;display:inline;fill:#02f383;fill-opacity:1;stroke-width:0.659186" id="path10" /></g><path style="fill:#ffffff;stroke-width:0.273865" d="m 1313.203,321.78592 c -0.1127,-0.11266 -0.2048,-0.42698 -0.2048,-0.69847 0,-0.27148 2.7635,-8.10403 6.1412,-17.40565 l 6.1412,-16.91207 -1.3355,-12.99948 -1.3353,-12.9995 -1.7643,-4.27687 -1.7644,-4.27687 -7.1532,-3.31123 -7.1532,-3.31123 -6.4539,-8.77078 c -3.5496,-4.82395 -6.5306,-8.86308 -6.6244,-8.97589 -0.094,-0.11277 -2.2064,-0.74746 -4.6947,-1.41041 -2.4882,-0.66291 -4.6221,-1.35935 -4.7419,-1.54763 -0.1197,-0.18829 -0.2198,-0.94416 -0.2223,-1.67973 l -0.01,-1.33737 -2.4393,-0.92657 c -1.3416,-0.50963 -2.5247,-0.92659 -2.6291,-0.92659 -0.1044,0 -0.1898,0.59155 -0.1898,1.31455 0,0.72301 -0.1229,1.31456 -0.2731,1.31456 -0.3426,0 -13.9943,-2.87666 -14.7229,-3.10238 -0.3989,-0.12354 -0.4909,-0.34595 -0.3597,-0.86881 0.2255,-0.89839 0.064,-0.89094 -3.2306,0.14892 -3.245,1.02426 -3.5604,1.18535 -5.952,3.03988 -9.2274,7.1551 -18.9658,19.53277 -28.635,36.39527 l -2.4138,4.20961 0.3498,1.89866 c 0.2828,1.53504 0.2769,1.96496 -0.031,2.24474 -0.2096,0.19033 -5.175,2.08693 -11.0343,4.21462 -5.8593,2.12772 -11.0064,4.11995 -11.4379,4.42723 -0.4315,0.30728 -0.95,0.55869 -1.152,0.55869 -0.4589,0 -5.8055,-3.99633 -5.9901,-4.47724 -0.1533,-0.39954 7.4293,-17.27535 16.188,-36.02747 3.2385,-6.93383 5.8883,-12.69032 5.8883,-12.79223 0,-0.1019 -0.2588,-0.54145 -0.5751,-0.97679 l -0.5751,-0.7915 0.904,-3.58054 0.904,-3.58055 1.975,-1.31293 c 1.8214,-1.21087 1.9882,-1.40946 2.1459,-2.55405 0.094,-0.68261 0.5844,-4.98758 1.0895,-9.56661 0.5052,-4.57903 1.0066,-8.42221 1.1141,-8.54041 0.1076,-0.11823 1.241,-0.5126 2.5187,-0.87637 l 2.3232,-0.66147 1.4357,-3.71419 1.4357,-3.71422 2.6253,-0.0834 2.6254,-0.0834 0.6897,-2.322 c 0.4527,-1.52395 0.5909,-2.42083 0.4021,-2.60963 -0.3796,-0.37966 -0.4148,-0.32396 -1.0833,1.71826 -0.5155,1.57527 -0.6601,1.75983 -1.4275,1.82265 -0.4696,0.0385 -4.2702,-0.42164 -8.4458,-1.02242 l -7.5918,-1.09234 -2.2064,-5.78455 c -1.2136,-3.1815 -2.3484,-6.01176 -2.5219,-6.28949 -0.1734,-0.27772 -2.4355,-1.34474 -5.0269,-2.37116 -3.7054,-1.46767 -4.7116,-1.98109 -4.7116,-2.40401 0,-0.29581 0.9202,-2.6006 2.0449,-5.12178 1.1247,-2.5212 2.0449,-4.68337 2.0449,-4.80483 0,-0.12146 -0.9149,-0.49332 -2.0332,-0.82631 -1.1181,-0.33302 -2.1135,-0.73552 -2.2116,-0.89447 -0.098,-0.15892 -0.019,-0.77378 0.1769,-1.36631 0.5276,-1.5985 0.4564,-4.66443 -0.151,-6.50642 -0.4955,-1.50254 -1.281,-2.36409 -12.1189,-13.29162 -33.0917,-33.36541 -92.0399,-93.023647 -92.0399,-93.148471 0,-0.07871 0.2066,-0.349698 0.459,-0.602178 0.3818,-0.38177 1.3057,-0.459054 5.4876,-0.459054 h 5.0286 l 29.7862,25.464385 c 57.0113,48.739068 61.2905,52.395278 63.0605,53.879548 l 1.7806,1.49308 9.5795,0.82305 9.5796,0.82305 1.8132,-1.76183 c 4.4602,-4.33367 11.3494,-9.7983 15.9865,-12.68085 4.8346,-3.00531 12.3173,-6.100622 15.9521,-6.598813 0.7029,-0.09635 1.2779,-0.245408 1.2779,-0.331265 0,-0.08586 -0.4218,-1.360482 -0.9373,-2.832509 -0.8606,-2.457288 -0.9078,-2.77475 -0.5773,-3.87799 1.0029,-3.347209 7.8465,-8.310667 15.8066,-11.4639 5.9325,-2.350039 13.0177,-3.962831 25.5829,-5.823334 3.3739,-0.499585 9.158,-1.438592 12.8533,-2.086639 8.2817,-1.452332 14.2447,-1.799078 17.6973,-1.029046 3.9669,0.884749 6.4386,2.875254 7.2736,5.857676 0.5977,2.134399 0.2439,7.724323 -0.6482,10.244517 -1.0096,2.851813 -2.5433,5.800384 -4.1787,8.033377 -1.7591,2.401938 -6.0897,6.861226 -8.7512,9.011266 -1.1246,0.90855 -2.0809,1.75372 -2.125,1.87817 -0.044,0.12444 1.08,1.3303 2.498,2.67969 l 2.5781,2.45345 14.9652,-2.87605 14.9652,-2.87606 3.9754,-3.45552 c 2.1866,-1.900542 4.3845,-3.811682 4.8843,-4.246991 0.6048,-0.526698 1.2509,-0.795744 1.9312,-0.80421 1.1606,-0.01451 49.4789,4.31579 50.4158,4.518232 0.9398,0.203016 2.7943,1.800469 3.8565,3.321929 1.2677,1.81584 1.8077,3.97568 1.8119,7.24712 0.01,4.10228 -0.6493,6.6999 -3.431,13.61442 -1.0383,2.58082 -1.5319,3.4742 -1.9697,3.56433 -0.3214,0.0661 -3.3075,0.38503 -6.6358,0.70863 l -6.0515,0.58837 -9.0287,7.09405 -9.0287,7.09404 1.9346,0.18281 c 1.0641,0.10054 6.207,0.20082 11.4287,0.22287 11.5177,0.0486 22.6187,0.46141 28.3775,1.05523 4.3002,0.44344 7.2386,0.9019 7.5081,1.1714 0.08,0.0798 -0.1548,0.46456 -0.5215,0.85496 l -0.6669,0.70978 0.9822,0.17059 c 0.5401,0.0939 3.806,0.62564 7.2575,1.18178 l 6.2755,1.01117 1.1209,-0.74174 c 0.6164,-0.40795 1.3417,-0.69951 1.6118,-0.64791 0.5568,0.10642 0.054,-1.10625 11.8777,28.65273 4.5824,11.53365 8.3316,21.22597 8.3316,21.53851 0,0.74464 -0.3619,0.80453 -6.1346,1.01497 -16.0201,0.58396 -51.2318,5.20908 -60.0691,7.89017 -0.7825,0.23739 -1.7208,0.43307 -2.0849,0.43479 -0.6568,0.003 -6.912,-2.9825 -7.1658,-3.42027 -0.073,-0.12547 0.7192,-1.80557 1.7599,-3.73359 1.0406,-1.92801 3.6409,-7.1205 5.7781,-11.53885 5.81,-12.01061 5.5619,-11.62124 9.6442,-15.13381 3.351,-2.88325 7.6879,-6.02254 10.8022,-7.81919 1.6456,-0.94935 21.4176,-14.29519 21.9798,-14.836 0.2825,-0.27183 -1.1635,-0.59368 -6.5465,-1.4571 l -6.9092,-1.10817 -0.7872,0.82398 c -0.4329,0.4532 -6.1255,6.42948 -12.6502,13.28067 l -11.8632,12.45666 -2.1282,0.64358 c -10.6009,3.20568 -19.8621,8.00608 -24.7067,12.8062 -2.918,2.89128 -5.5363,7.02785 -7.4745,11.80902 -0.4453,1.09872 -1.1121,1.41279 -1.5501,0.73029 -0.1289,-0.20082 -1.5044,-5.55692 -3.0565,-11.90241 -1.9442,-7.94787 -2.7407,-11.68973 -2.56,-12.02726 0.2211,-0.41311 -0.6885,-1.03766 -5.7974,-3.98056 -7.8842,-4.54162 -7.9626,-4.57908 -11.3479,-5.42494 -4.3693,-1.09174 -6.8949,-1.56991 -18.6659,-3.53394 l -10.8085,-1.80346 -0.3124,-2.39832 c -0.222,-1.70298 -0.222,-2.46756 0,-2.63705 0.1718,-0.13129 1.5671,-0.9246 3.1006,-1.7629 2.4089,-1.31685 7.9103,-5.12262 11.115,-7.68915 l 0.9951,-0.79693 -1.6067,0.16926 c -2.7883,0.29374 -7.3527,1.28174 -10.0783,2.18147 -3.297,1.0884 -8.9161,3.82429 -11.977,5.83153 -1.2853,0.8429 -2.76,1.71001 -3.277,1.92694 -0.9786,0.41061 -4.0753,0.48652 -5.3407,0.13094 -0.6037,-0.16969 -1.0978,0.0863 -2.852,1.47758 -3.7876,3.00414 -7.242,4.66985 -16.5741,7.99222 -7.0949,2.52589 -9.317,3.51175 -9.0252,4.00404 0.1218,0.20535 1.4587,1.98816 2.971,3.96183 1.662,2.16904 2.6848,3.75751 2.5856,4.01588 -0.09,0.23508 -0.7382,0.70638 -1.4399,1.04732 -1.0802,0.52475 -1.4756,0.98531 -2.5767,3.0003 -1.1851,2.16888 -1.3742,2.80887 -2.1277,7.20291 l -0.8269,4.82255 -2.1857,1.89107 c -3.0741,2.6598 -7.9658,7.81321 -10.3731,10.92805 -3.4593,4.47595 -5.0374,8.47008 -3.9293,9.94463 0.4286,0.5703 0.475,0.56465 3.563,-0.43339 3.4862,-1.12674 3.6466,-1.29292 3.6466,-3.7785 0,-2.76111 0.1946,-3.12896 2.7429,-5.18501 l 2.3693,-1.91158 0.146,-3.21121 0.146,-3.21118 5.1122,-3.13615 5.1122,-3.13617 0.081,1.19625 c 0.045,0.6579 -0.108,6.12579 -0.3386,12.15084 -0.2306,6.02503 -0.3327,11.0434 -0.2268,11.1519 0.156,0.15981 4.5712,1.99333 4.8011,1.99377 0.036,6e-5 -0.1153,-3.38788 -0.3363,-7.52872 l -0.4016,-7.52886 3.7296,-6.56623 3.7295,-6.5662 1.9303,-7.11724 1.9303,-7.11727 7.2986,-3.77255 c 4.0142,-2.07492 7.4883,-3.73602 7.7203,-3.69132 0.2587,0.0498 3.6179,7.85815 8.6875,20.19417 l 8.2658,20.11293 -0.6248,7.9309 -0.6249,7.93092 6.9464,13.87583 c 3.8205,7.63173 7.6029,15.09722 8.4054,16.59 l 1.4591,2.71418 0.961,-1.10749 c 0.7668,-0.88376 0.871,-1.14038 0.5156,-1.27032 -0.7125,-0.26053 -14.6648,-29.42753 -14.6647,-30.65615 10e-5,-0.56232 0.4429,-4.24014 0.9842,-8.17291 l 0.9839,-7.15046 -5.9605,-15.45042 c -3.2783,-8.49772 -5.9606,-15.63624 -5.9606,-15.86338 0,-0.22715 0.2029,-0.49083 0.4507,-0.58594 0.2616,-0.10037 5.9525,2.43647 13.5575,6.04339 l 13.1067,6.21639 0.1935,1.34186 c 0.2557,1.77366 1.3151,4.06532 2.9171,6.31033 1.4927,2.09178 5.6738,6.38681 8.3872,8.61575 1.0155,0.83422 1.9882,1.69547 2.1614,1.91396 0.2301,0.28999 -0.019,2.6671 -0.9233,8.80842 l -1.2385,8.4112 -4.0855,7.30309 -4.0854,7.30305 -2.4861,7.68484 -2.4861,7.68485 2.6749,-2.58644 c 3.2284,-3.12157 7.5147,-6.5657 11.3653,-9.13226 l 2.8479,-1.89824 0.876,-2.77516 c 2.0649,-6.54111 3.1817,-13.17433 3.4626,-20.56415 l 0.1899,-4.99662 4.9661,-0.21367 c 38.4127,-1.65275 66.1582,-4.34923 94.0636,-9.14169 5.1414,-0.88297 9.757,-1.6723 10.2569,-1.75405 0.6138,-0.10037 1.0325,2.5e-4 1.2895,0.30985 0.6592,0.79432 -0.2276,1.21706 -3.659,1.74428 -22.3163,3.42885 -51.4301,12.23954 -80.6839,24.41732 -24.2694,10.1029 -34.0113,15.73384 -44.1666,25.52897 -8.9659,8.6481 -15.8471,19.67694 -18.4125,29.51065 -0.3353,1.28536 -3.4034,10.02547 -6.818,19.42254 -5.9778,16.4509 -6.5602,17.80873 -7.3147,17.05428 z m 16.5783,-47.28761 c 1.7403,-3.50649 5.3803,-9.23644 7.57,-11.91651 l 1.3844,-1.69443 -8.662,-17.10882 -8.662,-17.10878 0.6491,-7.98427 0.6491,-7.98428 -7.8188,-19.07582 c -4.3003,-10.4917 -7.9128,-19.18198 -8.0276,-19.31171 -0.1148,-0.12972 -3.1067,1.25055 -6.6486,3.0673 l -6.4399,3.30317 -1.6657,6.28064 c -0.9161,3.45437 -1.8395,6.70091 -2.052,7.21455 -0.2124,0.51363 -1.9551,3.73429 -3.8727,7.157 l -3.4864,6.22313 0.5239,9.02135 c 0.2882,4.96175 0.6316,9.12067 0.763,9.24205 0.1314,0.12141 1.8587,0.63761 3.8385,1.14714 1.9798,0.50955 3.8592,1.02251 4.1766,1.13989 0.3173,0.11738 3.5613,4.25444 7.2089,9.19346 l 6.632,8.98003 7.0109,3.23457 c 3.8561,1.779 7.1597,3.38539 7.3415,3.56969 0.1818,0.18435 1.1433,2.2646 2.1368,4.62283 l 1.8063,4.28763 1.1468,10.90275 c 0.6307,5.99654 1.1557,10.96848 1.1667,11.04883 0.011,0.0803 0.4058,-0.83986 0.8776,-2.04487 0.4717,-1.20501 1.5758,-3.63795 2.4536,-5.40652 z m -126.9855,-4.57546 c 2.6905,-2.27676 4.9459,-4.18207 5.0119,-4.23404 0.2634,-0.20751 7.9143,-40.86369 7.7638,-41.256 -0.097,-0.25333 -0.2657,-0.3144 -0.4226,-0.15326 -0.7324,0.75201 -21.4622,46.06165 -21.292,46.53842 0.081,0.22668 3.6967,3.16411 3.9728,3.2274 0.04,0.009 2.2755,-1.8458 4.9661,-4.12252 z m 4.847,0.16938 3.1684,-1.14046 -1.0837,-0.93683 -1.0838,-0.93684 -2.4498,2.06297 c -2.3795,2.00373 -2.8405,2.49546 -2.0847,2.22316 0.2009,-0.0724 1.791,-0.64476 3.5336,-1.272 z m 8.2244,-5.02286 c 3.4455,-2.79586 3.5115,-2.87194 3.8587,-4.44793 0.1942,-0.88187 0.7649,-3.50953 1.2683,-5.83919 3.6335,-16.818 10.0273,-31.94249 17.2337,-40.76635 3.0611,-3.74812 7.2712,-7.17122 10.7248,-8.71988 0.8846,-0.39669 1.2397,-0.73084 1.2416,-1.16847 0.01,-1.46989 1.5879,-6.67438 2.7688,-9.112 1.4691,-3.03246 3.5614,-5.58737 4.3332,-5.29121 0.7841,0.30086 0.5765,1.04167 -0.6973,2.48886 -2.0629,2.3436 -3.769,6.68486 -4.8433,12.32386 -0.2455,1.28895 -0.3003,1.34095 -2.8105,2.67087 -2.9406,1.55794 -4.065,2.36233 -6.458,4.61997 -6.4608,6.09524 -12.5654,17.59501 -16.8517,31.74495 -1.3836,4.5675 -3.5785,13.26076 -3.3946,13.44469 0.044,0.0441 0.9942,-1.45664 2.1114,-3.33492 7.6218,-12.81397 16.7565,-24.51295 24.1379,-30.91406 l 1.658,-1.43774 -0.4119,-1.75107 c -0.5331,-2.26654 -0.5268,-3.98797 0.023,-6.14459 0.9846,-3.86599 3.6487,-7.73782 7.5273,-10.93949 1.8232,-1.50506 2.2015,-1.98712 2.8044,-3.57373 1.8148,-4.77621 6.3178,-10.79134 10.5612,-14.10779 0.4079,-0.31881 1.0928,-1.21126 1.5221,-1.98323 0.7705,-1.38592 0.7722,-1.40126 0.1347,-1.21878 -1.9339,0.55348 -9.6348,4.6702 -11.4333,6.11202 -1.1132,0.89236 -2.1159,1.62249 -2.2282,1.62249 -0.1124,0 -0.3711,-0.20102 -0.575,-0.44674 -0.3079,-0.37092 -0.252,-0.57462 0.3293,-1.20013 1.9236,-2.06976 7.0003,-5.01414 12.6773,-7.35255 1.9279,-0.79418 3.8577,-1.60876 4.2883,-1.81019 l 0.783,-0.36627 -2.3649,-3.10273 c -1.3007,-1.70648 -2.5097,-3.26453 -2.6866,-3.46229 -0.2522,-0.28192 -0.7785,-0.20072 -2.4366,0.37591 -1.8037,0.62726 -2.2834,0.69011 -3.2602,0.42709 -1.8232,-0.49093 -2.4377,-1.42114 -4.4421,-6.72408 l -0.9385,-2.48303 -1.3924,2.9081 c -2.1773,4.54764 -2.9064,8.73581 -2.2186,12.74501 l 0.2297,1.33906 -4.4016,1.94733 c -2.421,1.071 -4.6737,1.94729 -5.006,1.94729 -1.1066,0 -2.4268,-1.74915 -3.5827,-4.74699 -0.8003,-2.07571 -1.2307,-2.84111 -1.5868,-2.82202 -0.2686,0.0145 -1.5309,0.3759 -2.8049,0.80335 l -2.3164,0.77716 -1.0697,3.50547 c -4.3024,14.09991 -12.2387,28.09542 -18.069,31.86392 l -1.773,1.14599 -0.5733,2.48305 c -0.3154,1.36566 -0.6148,2.70051 -0.6654,2.96632 -0.05,0.26579 0.5398,1.34624 1.3121,2.40095 l 1.4043,1.91772 -3.9618,20.66756 -3.9617,20.66758 1.2429,1.09218 c 0.6836,0.60072 1.3087,1.09469 1.389,1.09773 0.08,0.003 1.7235,-1.27451 3.6516,-2.83903 z m 2.6168,1.05989 c 1.1619,-0.44465 1.5993,-0.75253 1.4866,-1.04633 -0.088,-0.22895 -0.1597,-0.54595 -0.1597,-0.70441 0,-0.29229 -0.8933,0.29232 -2.4831,1.62507 -1.0811,0.9063 -0.9273,0.923 1.1562,0.12567 z m 131.4016,-32.78038 4.0235,-7.18707 1.1269,-7.8181 1.1267,-7.81812 -1.0606,-0.8612 c -2.1091,-1.71251 -7.1628,-6.78049 -8.8168,-8.84166 -1.9361,-2.41292 -3.4653,-5.32271 -3.6943,-7.02963 l -0.1572,-1.17258 -11.6506,-5.55112 c -6.4078,-3.05314 -11.6505,-5.5002 -11.6505,-5.43793 0,0.0623 2.4977,6.57822 5.5504,14.47993 3.0527,7.9017 5.549,14.77178 5.5473,15.26682 0,0.49506 -0.4486,4.15823 -0.9932,8.14037 l -0.9904,7.2403 4.9668,10.2871 c 2.7318,5.65792 5.6944,11.79886 6.5835,13.64652 l 1.6166,3.35942 2.2241,-6.75798 c 2.1851,-6.63913 2.295,-6.8844 6.2478,-13.94507 z m 15.2356,6.41141 c 7.5232,-4.07772 26.5127,-12.25704 41.1819,-17.73826 10.3914,-3.88276 24.0785,-8.41932 31.653,-10.4913 1.3267,-0.36292 2.3652,-0.70687 2.3077,-0.76435 -0.057,-0.0575 -2.1946,0.15777 -4.7493,0.47833 -15.3321,1.92396 -40.2173,3.9274 -58.1032,4.6777 -4.1773,0.17525 -8.6468,0.38916 -9.9322,0.47538 l -2.337,0.15673 -0.075,3.98294 c -0.091,4.81518 -0.8844,10.48551 -2.2374,15.98708 -0.5533,2.24934 -1.1018,4.3377 -1.219,4.64079 -0.2562,0.66245 -0.4384,0.73541 3.5106,-1.40504 z m -89.9815,-20.98223 c 0.2692,-2.99507 0.8324,-21.85997 0.6579,-22.03452 -0.089,-0.0887 -1.6469,0.7534 -3.4626,1.87126 l -3.3014,2.03249 -0.082,3.07282 -0.082,3.07286 -2.5931,2.09619 -2.5932,2.0962 -0.1896,2.83741 c -0.1042,1.56056 -0.253,3.17623 -0.3307,3.5904 l -0.1412,0.753 5.4895,1.19328 c 3.0191,0.65632 5.709,1.20479 5.9774,1.21884 0.3902,0.0206 0.5207,-0.34001 0.652,-1.80023 z m -22.3949,0.67615 c 0.6298,-0.52549 0.6372,-0.58684 0.1975,-1.63925 -1.5971,-3.82251 3.3837,-11.63076 13.3589,-20.94217 l 3.36,-3.13635 0.5763,-3.36338 c 0.317,-1.84988 0.4866,-3.36339 0.377,-3.36339 -0.3263,0 -3.7514,3.76822 -5.1414,5.65644 -1.6906,2.29653 -3.2678,5.14008 -4.0516,7.30479 -0.5502,1.51946 -0.9258,1.99045 -2.9343,3.67916 -4.4214,3.71745 -7.0841,7.95935 -7.3527,11.71359 -0.1696,2.37093 0.1302,4.65959 0.6087,4.64621 0.191,-0.006 0.6417,-0.25539 1.0016,-0.55565 z m -30.0987,-13.6026 c 0.7982,-1.12468 2.1421,-3.20047 2.9863,-4.61288 1.7203,-2.87775 5.3929,-10.41502 5.1791,-10.62885 -0.076,-0.0762 -1.9959,0.3643 -4.266,0.97882 -3.3968,0.91953 -4.1497,1.22081 -4.2525,1.70161 -0.1799,0.84129 -1.6058,13.71997 -1.6058,14.50347 0,0.78723 0.074,0.71403 1.9589,-1.94217 z m 183.1078,-0.88918 c 10.4256,-2.6582 43.391,-6.89752 58.8356,-7.56622 2.1577,-0.0934 3.9715,-0.21816 4.0305,-0.27721 0.1166,-0.11656 -18.2961,-46.64495 -18.5859,-46.96617 -0.097,-0.10746 -5.5002,3.41628 -12.0072,7.83053 -6.5071,4.41424 -13.0799,8.77242 -14.6062,9.68483 -3.2881,1.96557 -7.3515,4.984 -10.8717,8.07583 l -2.5461,2.23633 -6.2096,12.47501 c -3.4152,6.86127 -6.2549,12.56752 -6.3103,12.68061 -0.1211,0.24663 4.2762,2.53413 4.9115,2.55497 0.2447,0.008 1.7565,-0.3198 3.3594,-0.72851 z m -33.3381,-9.11603 c 2.4771,-5.0581 6.6922,-9.71474 11.8565,-13.09843 4.7328,-3.1009 12.6255,-6.62439 19.1948,-8.56895 l 2.1017,-0.62214 12.8569,-13.49149 c 7.0713,-7.42033 12.8111,-13.53731 12.7551,-13.59329 -0.3646,-0.36459 -8.3999,-0.97887 -16.0856,-1.22973 -12.1521,-0.39664 -40.254,-0.89299 -40.4328,-0.71416 -0.079,0.0786 0.6155,4.08019 1.5427,8.89233 1.9527,10.13554 2.1923,11.92552 1.6417,12.2658 -0.71,0.43881 -1.1524,-0.0523 -1.3433,-1.49114 -0.1044,-0.78747 -0.2745,-1.43175 -0.3779,-1.43175 -0.1033,0 -0.6843,0.40925 -1.2912,0.90946 -0.7855,0.6475 -1.6143,1.93062 -2.8776,4.45486 -0.9758,1.95 -2.5992,4.93766 -3.6074,6.63924 l -1.8332,3.0938 2.3802,9.82925 c 1.3092,5.40608 2.4515,9.83079 2.5385,9.83265 0.087,0.003 0.5285,-0.75248 0.9809,-1.67631 z m -141.7502,-7.1042 c 0.9744,-0.2553 1.135,-0.45177 1.8214,-2.22782 0.414,-1.0713 0.7219,-1.97153 0.6841,-2.0005 -0.038,-0.0289 -0.795,-0.12401 -1.6828,-0.21118 l -1.6142,-0.15851 -0.9419,2.3901 c -0.518,1.31459 -0.9419,2.49938 -0.9419,2.63292 0,0.23473 0.3992,0.1713 2.6753,-0.42501 z m 20.6294,-7.96113 3.2943,-1.51267 0.08,-3.79758 c 0.071,-3.40508 0.1779,-4.08446 1.0307,-6.57278 0.5231,-1.52636 1.5287,-3.84605 2.2346,-5.15488 l 1.2835,-2.3797 -0.6424,-1.6364 c -0.3533,-0.90004 -0.7107,-1.63668 -0.7943,-1.637 -0.083,0 -0.9205,1.54402 -1.8597,3.43186 -2.7598,5.54676 -5.553,9.4457 -7.4813,10.44284 -0.6146,0.31788 -0.9132,0.90609 -1.5651,3.08389 l -0.8056,2.69114 -0.8947,-0.84238 -0.8948,-0.84236 0.2161,0.73032 c 0.3848,1.30061 1.596,4.17699 2.0519,4.87278 0.2442,0.37265 0.671,0.66812 0.9484,0.65656 0.2776,-0.0115 1.987,-0.70167 3.7988,-1.53364 z m -18.483,-3.41146 c 0.72,-2.1631 1.124,-2.38978 2.6163,-1.46754 l 1.0053,0.62132 2.9354,-0.93054 c 2.7971,-0.8867 3.2923,-1.18154 2.6505,-1.57815 -0.2639,-0.16312 0.2803,-1.88669 1.5452,-4.89335 l 0.459,-1.09121 1.4956,1.5294 c 1.2825,1.31138 1.0313,0.86311 -1.7621,-3.14455 -1.7918,-2.5707 -3.4181,-4.84129 -3.614,-5.04578 -0.2855,-0.29816 -0.9597,0.0504 -3.4032,1.75947 l -3.0472,2.13128 -1.6512,5.8857 c -0.9082,3.23711 -1.7283,6.01019 -1.8223,6.16238 -0.094,0.15222 -0.9956,0.36336 -2.0034,0.46927 -4.7203,0.49594 -4.7607,0.5416 -0.9559,1.08133 5.0069,0.71027 4.8017,0.76532 5.552,-1.48903 z m -8.8409,-0.76902 c 2.5291,-0.27937 4.7079,-0.58216 4.8416,-0.6728 0.2444,-0.16564 2.9752,-9.6416 2.9752,-10.3238 0,-0.47009 -13.1984,-3.31301 -13.7704,-2.9661 -0.3462,0.21003 -3.7843,2.80926 -4.4296,3.34883 -0.1289,0.10779 0.7198,2.7226 1.886,5.81066 l 2.1204,5.61465 0.8892,-0.15172 c 0.489,-0.0835 2.9585,-0.38032 5.4876,-0.65972 z m 143.0297,-2.72748 0.6516,-1.15949 -0.6709,-0.13099 c -0.9024,-0.17618 -6.2041,-0.71838 -6.287,-0.64296 -0.1099,0.1 5.0092,3.03761 5.3432,3.06626 0.1712,0.0148 0.6046,-0.4951 0.9631,-1.13282 z m -121.3156,-0.45886 c 0.1459,-0.77772 0.066,-1.17606 -0.3241,-1.60666 -0.7066,-0.78084 -0.8366,-0.73275 -1.2717,0.47067 -0.3314,0.91635 -0.3153,1.1118 0.1326,1.60668 0.7613,0.84126 1.2464,0.68521 1.4632,-0.47069 z m 25.2612,-4.20868 c 2.0378,-0.95552 4.039,-1.8211 4.447,-1.9235 1.808,-0.45382 2.5854,-2.46081 2.7118,-7.00167 0.045,-1.60668 0.092,-3.02898 0.1058,-3.16065 0.013,-0.13168 0.3202,-0.19741 0.6818,-0.14606 0.6361,0.0904 0.6572,0.19675 0.6572,3.30671 0,1.76734 -0.1045,3.7063 -0.2323,4.30881 -0.1556,0.73341 -0.128,1.09546 0.083,1.09546 0.1736,0 2.2554,-0.70616 4.6262,-1.56925 7.2052,-2.62308 11.1311,-4.72656 14.3785,-7.70397 2.7692,-2.53889 11.6544,-15.78733 11.667,-17.39623 0.01,-0.43088 -0.1653,-0.49537 -0.9453,-0.36148 -0.5221,0.0896 -2.3297,0.36175 -4.0166,0.60472 -6.543,0.94229 -27.323,4.8916 -27.7183,5.26792 -0.062,0.059 0.1114,0.44921 0.3853,0.86721 0.7932,1.21049 1.29,2.88923 1.6453,5.55936 0.4016,3.01707 0.2273,3.99907 -0.6868,3.86909 -0.589,-0.0837 -0.6649,-0.3087 -0.8474,-2.50883 -0.2596,-3.13153 -0.9364,-5.41327 -1.9276,-6.49816 l -0.7932,-0.86821 -5.4689,1.20832 -5.4689,1.2083 1.4985,1.63845 c 1.6963,1.85473 2.9801,4.33942 3.4781,6.73158 0.2091,1.00419 0.2855,3.18914 0.1998,5.71541 -0.1173,3.45849 -0.2375,4.28312 -0.779,5.34271 -0.7411,1.45042 -2.1075,2.39588 -3.4648,2.39744 -1.118,0 -1.1672,0.16986 -0.3143,1.07775 0.9695,1.03192 2.026,0.84805 6.0977,-1.06123 z m 99.463,-1.78651 c 1.0986,-2.22179 1.7124,-3.81388 1.6611,-4.30881 -0.3608,-3.48332 -2.3839,-8.61462 -4.2291,-10.72648 -0.566,-0.64778 -1.6977,-1.54173 -2.5149,-1.98654 -2.8975,-1.57697 -12.5401,-2.86505 -21.8015,-2.9122 -7.7483,-0.0395 -8.2808,0.12896 -13.9831,4.42374 -2.3887,1.79908 -5.5763,3.95859 -7.0837,4.79892 -2.6747,1.49112 -2.7406,1.55334 -2.7409,2.58754 -2e-4,0.58284 0.164,1.18427 0.3648,1.33651 0.2009,0.15225 2.7314,0.64132 5.6234,1.08681 15.0871,2.32405 24.1023,4.2645 27.8869,6.0024 3.6246,1.66441 7.0413,2.48746 12.5721,3.02842 2.6667,0.26084 2.3441,0.51388 4.2449,-3.33031 z m -120.0688,0.44071 c 1.265,-1.68721 3.7955,-6.15806 5.7173,-10.10128 l 0.9443,-1.93769 -1.2586,-3.1317 -1.2587,-3.13171 -1.1972,0.2085 c -0.6585,0.11469 -2.2795,0.29262 -3.6021,0.3954 l -2.4049,0.18692 -3.7983,3.59561 -3.7982,3.59557 0.4908,0.78627 c 0.27,0.43243 2.2035,3.24114 4.2966,6.24153 2.6528,3.80254 3.921,5.3908 4.1862,5.24239 0.2093,-0.1171 0.9665,-0.99452 1.6828,-1.94981 z m 16.356,-1.04729 c 0.584,-0.56356 0.5839,-0.56447 -0.083,-1.64917 -1.4406,-2.34294 -3.5855,-7.02292 -4.0454,-8.82657 -0.5268,-2.06618 -0.6721,-5.62035 -0.3027,-7.40494 l 0.2327,-1.1243 -1.1141,0.19379 c -0.6127,0.10659 -2.0596,0.41531 -3.2151,0.68611 l -2.101,0.49233 3.4754,8.57186 c 1.9115,4.71451 3.6412,8.77146 3.8436,9.01545 0.8727,1.05148 2.2478,1.07038 3.3097,0.0454 z m -51.5258,-4.0906 2.7294,-2.08644 7.4551,1.5991 7.4551,1.5991 2.9942,-2.04046 c 1.6468,-1.12222 2.9942,-2.19235 2.9942,-2.37806 0,-0.18568 -0.1929,-0.59278 -0.4289,-0.90466 -0.2358,-0.31188 -0.433,-0.78541 -0.4382,-1.0523 -0.01,-0.26688 1.634,-2.02816 3.6423,-3.91394 2.0084,-1.88576 3.6502,-3.50778 3.6486,-3.60445 0,-0.0967 -0.5279,-0.39629 -1.1695,-0.66575 -0.6416,-0.26948 -1.2525,-0.71388 -1.3575,-0.98755 -0.3575,-0.93164 0.8946,-2.51938 3.8331,-4.86049 1.613,-1.28511 4.3464,-3.50285 6.0742,-4.92831 1.7278,-1.42547 4.6422,-3.67248 6.4763,-4.99334 l 3.3348,-2.40158 -2.0903,-2.22661 -2.0903,-2.2266 -2.9254,0.91838 c -1.609,0.50511 -3.2541,1.08943 -3.6557,1.2985 -1.5612,0.81256 -3.2599,2.47139 -5.9678,5.82753 -5.9186,7.33548 -8.4035,8.71856 -21.626,12.03636 -7.0893,1.77886 -11.6487,3.22594 -14.1986,4.50645 l -1.9175,0.96294 -1.9656,4.44281 c -1.081,2.44357 -1.9927,4.57322 -2.026,4.73259 -0.061,0.29344 7.1317,3.34891 8.0126,3.40355 0.2629,0.0164 1.7063,-0.90924 3.2074,-2.05677 z m 52.6106,-5.34278 c -0.3717,-2.94548 -1.4943,-5.60408 -2.9586,-7.00702 -0.7802,-0.74737 -0.9069,-0.78736 -1.0786,-0.34014 -0.1069,0.27875 -0.1239,1.5813 -0.038,2.8946 0.1755,2.6715 1.1066,5.58756 2.8009,8.77177 l 1.0655,2.00215 0.2693,-1.85237 c 0.1787,-1.22867 0.1582,-2.73334 -0.061,-4.46899 z m 107.176,3.98274 0.9148,-0.81732 -0.9666,-5.02513 -0.9666,-5.02511 h -2.7168 -2.7168 l 1.0671,1.38757 c 1.8112,2.35503 3.8951,7.53517 3.8951,9.68224 0,0.82814 0.3969,0.77424 1.4898,-0.20225 z m -65.9001,-7.79525 c 5.9451,-3.73197 11.5496,-6.03093 17.9331,-7.35625 2.9934,-0.62148 4.5409,-0.77027 8.2821,-0.79626 l 4.6009,-0.032 v -3.70961 c 10e-5,-6.62736 -1.3413,-13.91963 -3.7232,-20.24074 -1.1471,-3.04412 -1.4217,-3.32177 -2.7763,-2.80674 l -0.7571,0.28786 1.1703,2.29075 c 0.9846,1.92719 1.178,2.59783 1.2184,4.22566 0.026,1.06421 -0.018,1.9979 -0.098,2.07486 -0.08,0.0769 -5.311,2.7208 -11.6236,5.8752 -7.1141,3.55483 -11.538,5.92711 -11.6366,6.23989 -0.5527,1.75261 -1.5228,3.43819 -4.7453,8.24593 -1.9922,2.97234 -3.999,5.88329 -4.4594,6.46873 -0.4605,0.58546 -0.8371,1.13621 -0.8371,1.2239 0,0.24958 2.0795,0.35893 3.2357,0.17013 0.5747,-0.0938 2.4719,-1.06643 4.2162,-2.16135 z m -101.8072,-3.95001 c 0.715,-1.72613 2.8274,-3.15718 6.2801,-4.25448 2.2694,-0.7212 2.3429,-0.82308 2.6358,-3.65282 l 0.1685,-1.62799 7.4624,-7.24746 7.4624,-7.24744 1.7678,0.18478 c 0.9723,0.10163 2.2209,0.18477 2.7747,0.18477 0.7556,0 1.0444,0.1434 1.1571,0.57457 0.2204,0.8426 0.9278,0.95144 3.7466,0.57633 3.1322,-0.41683 3.2672,-0.32317 2.8107,1.95 -0.1845,0.91873 -0.3956,1.73053 -0.4691,1.80401 -0.073,0.0735 -2.0617,0.50618 -4.4183,0.96154 -2.3567,0.45538 -4.3109,0.86631 -4.343,0.9132 -0.032,0.0469 -0.4731,0.7732 -0.9802,1.61405 l -0.9221,1.5288 2.6521,2.04972 c 1.4587,1.12731 2.8185,2.04969 3.0217,2.04969 0.6554,0 3.9015,-3.26858 6.6725,-6.71885 3.5584,-4.43059 5.4211,-5.83497 9.342,-7.04332 1.6416,-0.50591 3.034,-0.96294 3.0942,-1.01564 0.1111,-0.0974 -3.5689,-5.27335 -4.6031,-6.47415 -0.3113,-0.3615 -0.6899,-0.65727 -0.8412,-0.65727 -0.1514,0 -1.7078,0.60423 -3.4587,1.34276 -1.7509,0.73853 -5.0238,2.09671 -7.2732,3.01819 l -4.0897,1.67543 -3.9145,-0.23304 c -2.1529,-0.12814 -4.0825,-0.1389 -4.2879,-0.0238 -1.0012,0.56054 -12.8277,11.95778 -17.2096,16.58501 -4.8415,5.1125 -5.986,5.98552 -6.2243,4.74782 -0.06,-0.3119 1.6973,-2.38542 4.7778,-5.63725 2.68,-2.82914 4.8243,-5.18301 4.7649,-5.23086 -0.059,-0.0478 -1.2192,-0.23938 -2.5776,-0.42564 -1.3583,-0.18622 -2.5988,-0.46776 -2.7567,-0.62559 -0.3838,-0.38388 0.595,-3.48658 1.1695,-3.70707 0.3732,-0.1432 6.4557,0.6088 7.7258,0.95521 0.2817,0.0768 1.9542,-1.27612 4.3819,-3.54477 6.0051,-5.61145 4.9596,-5.09792 9.7674,-4.79749 l 4.0882,0.25543 6.7203,-2.78532 c 15.4298,-6.39506 18.338,-7.41502 24.978,-8.76022 2.0084,-0.40688 3.7393,-0.89425 3.8465,-1.08305 0.9839,-1.73209 10.7685,-13.098164 14.392,-16.718279 5.2715,-5.266406 9.2971,-7.507637 15.426,-8.588205 6.2118,-1.095158 10.2197,-2.851869 19.3922,-8.49988 3.0784,-1.895641 6.1682,-3.737875 6.8661,-4.0939 1.1832,-0.603629 1.2246,-0.663603 0.6143,-0.889354 -0.3599,-0.133151 -1.7252,-0.376371 -3.0342,-0.540502 -3.1574,-0.395901 -7.3853,-0.01205 -15.8754,1.441438 -3.6953,0.632654 -9.4794,1.556761 -12.8534,2.053577 -16.6891,2.457451 -25.3903,5.032856 -32.7874,9.704565 l -1.8476,1.166853 1.0503,1.910762 c 0.9292,1.690599 1.0003,1.960768 0.6161,2.344916 -0.6556,0.655553 -1.1445,0.296765 -2.1506,-1.578342 l -0.9148,-1.704894 -1.606,1.605922 c -2.231,2.231019 -2.2734,2.586577 -0.8182,6.857591 1.249,3.665883 1.5325,5.979332 0.9276,7.570212 -0.1567,0.41214 -0.2079,0.74932 -0.1139,0.74932 0.094,0 0.9764,-0.42722 1.9608,-0.94937 2.8053,-1.48803 4.5726,-3.505263 4.5726,-5.219115 0,-0.319077 -0.5307,-1.826954 -1.1792,-3.350855 -0.6487,-1.523894 -1.101,-2.897467 -1.0052,-3.052394 0.096,-0.154921 0.4325,-0.281669 0.7484,-0.281669 0.4327,0 0.8296,0.558493 1.609,2.263961 0.569,1.245159 1.1775,2.878441 1.3522,3.629459 0.2901,1.247127 0.2479,1.50818 -0.4873,3.010878 -1.0717,2.190535 -2.8415,3.555705 -7.7567,5.983335 -2.169,1.0713 -5.3218,2.76075 -7.0063,3.75439 -3.5771,2.1101 -4.6701,2.28845 -6.3188,1.03094 -1.3161,-1.00381 -1.7271,-1.75419 -1.2656,-2.31031 0.4872,-0.58697 0.6027,-0.55049 1.9742,0.62343 1.4664,1.25526 1.3918,1.27123 5.5665,-1.1918 3.5407,-2.08894 5.3938,-3.8824 5.8809,-5.69156 0.3145,-1.167896 0.1691,-2.925509 -0.2417,-2.921238 -0.6281,0.0066 -5.1987,1.242169 -7.0608,1.908812 -7.2987,2.612926 -16.6269,8.928316 -25.2108,17.068256 l -2.5713,2.43831 -10.2217,-0.88875 c -7.9995,-0.69551 -10.3329,-0.98926 -10.7328,-1.3512 -0.476,-0.43077 -0.89,-0.083 -6.0428,5.07505 l -5.5317,5.53751 5.8924,5.91875 c 7.2898,7.32223 7.5346,7.7358 7.5298,12.72217 v 3.29794 l 1.3176,0.40629 c 0.7248,0.22347 1.4003,0.41545 1.5013,0.42665 0.1011,0.0112 0.3473,-0.37462 0.5473,-0.85736 z m 6.8691,-1.87486 c 1.2828,-0.43282 4.9532,-1.44499 8.1566,-2.24926 6.9358,-1.74135 11.4286,-3.1412 11.0796,-3.45218 -1.4134,-1.25956 -3.4881,-2.64669 -3.9586,-2.64669 -0.3223,0 -0.9652,0.27003 -1.4287,0.60006 -1.0477,0.74601 -5.9762,3.08751 -7.0618,3.35505 -0.4838,0.11921 -0.8033,0.39554 -0.8033,0.69471 0,1.05003 -0.7726,1.50437 -3.9947,2.34933 -3.3266,0.87237 -5.8106,1.93015 -6.5092,2.77187 -0.3272,0.39423 -0.1843,0.38095 0.8995,-0.0836 0.7087,-0.30378 2.3379,-0.90644 3.6206,-1.33926 z m 159.3487,0.78074 c 10e-5,-0.28119 -0.2126,-1.58316 -0.4727,-2.89331 l -0.4728,-2.38208 -1.061,-0.12499 c -0.99,-0.11665 -1.2421,0.042 -3.7632,2.36751 -1.4862,1.37086 -2.7022,2.59514 -2.7022,2.7206 0,0.37416 1.1354,0.5287 4.528,0.61636 1.7673,0.0457 3.3776,0.11095 3.5785,0.14507 0.2008,0.0341 0.3652,-0.16802 0.3654,-0.44916 z m -108.0099,-3.15937 c 16.1124,-3.52884 27.7272,-5.87942 34.6946,-7.02147 l 4.8279,-0.79134 1.3067,-2.07261 c 1.8602,-2.95057 7.6585,-8.68351 11.0817,-10.95678 6.8838,-4.57134 14.9754,-7.76896 27.8254,-10.99589 17.6163,-4.42394 34.3895,-6.96686 52.8294,-8.00936 l 5.1299,-0.29 4.6562,-2.1961 c 2.561,-1.20785 4.5817,-2.1961 4.4906,-2.19615 -0.091,-3e-5 -10.279,-0.913312 -22.6396,-2.029534 -12.3606,-1.116222 -22.9626,-2.065632 -23.5601,-2.109778 -1.0174,-0.0752 -1.3853,0.178502 -5.8023,4.001312 -2.5938,2.2449 -4.8655,4.16593 -5.0483,4.26899 -0.1827,0.10305 -8.0224,1.66318 -17.4215,3.46691 l -17.0892,3.27954 -7.6667,0.035 c -6.5638,0.03 -7.5138,0.0879 -6.6035,0.40308 0.5848,0.20247 1.223,0.50074 1.4184,0.66283 0.2418,0.20067 1.0782,0.14518 2.621,-0.17384 2.0753,-0.42924 2.305,-0.4294 2.7324,-0.003 0.8142,0.81419 -0.1009,1.21111 -5.355,2.32256 -8.6523,1.83033 -16.9178,4.28709 -24.2787,7.21639 -5.1964,2.06787 -9.5189,4.13265 -9.2386,4.41301 0.1349,0.13491 3.4592,2.25468 7.3873,4.71054 5.3583,3.35008 7.142,4.60743 7.142,5.03468 0,0.3132 -0.2295,0.61368 -0.5101,0.66772 -0.2806,0.054 -3.9932,-2.08034 -8.2502,-4.74302 -4.2571,-2.66269 -7.8201,-4.84123 -7.9178,-4.84123 -0.098,0 -1.5112,0.74847 -3.1411,1.66326 -4.1215,2.31329 -9.4154,5.89685 -13.0447,8.83035 -1.687,1.36361 -4.4476,3.58321 -6.1346,4.93249 -3.5645,2.85088 -5.2582,4.36473 -5.2582,4.69991 0,0.45738 1.9177,0.84745 4.3118,0.87703 2.0489,0.0252 4.5392,-0.43586 16.5049,-3.0565 z m 101.0225,-1.01363 c 2.7712,-2.59356 3.5766,-3.19664 4.1203,-3.08562 0.3718,0.0759 1.0703,0.21748 1.5523,0.31467 l 0.8763,0.17673 -0.9494,-0.59229 c -0.5221,-0.32576 -0.9494,-0.65632 -0.9494,-0.73456 0,-0.0783 1.8733,-1.72511 4.1628,-3.65964 l 4.1628,-3.51733 1.3145,0.16188 1.3145,0.16188 -0.9161,-0.52325 -0.9161,-0.52322 3.4735,-3.6225 3.4736,-3.6225 3.9645,0.65482 c 2.1804,0.36015 4.0179,0.60132 4.0832,0.53589 0.065,-0.0654 -1.3296,-0.55788 -3.1002,-1.09442 -1.7705,-0.53652 -3.2823,-1.07782 -3.3596,-1.20287 -0.077,-0.12505 0.8776,-1.61635 2.122,-3.31399 1.9745,-2.6936 2.375,-3.09098 3.1456,-3.12053 0.4919,-0.0189 0.6566,-0.0931 0.3719,-0.1675 -0.6386,-0.16686 -0.6585,0.065 0.288,-3.34554 l 0.7992,-2.8798 1.0265,-0.0491 1.0266,-0.0491 -1.1283,-0.11653 -1.1282,-0.11656 0.1202,-1.88833 0.1203,-1.8883 -1.1829,0.14572 c -0.6507,0.0801 -2.366,0.22351 -3.812,0.31856 -2.4841,0.16331 -13.1012,1.29292 -13.1764,1.40192 -0.9003,1.30453 -5.4781,7.18576 -7.0885,9.10663 -3.209,3.82784 -9.9195,10.42915 -13.6214,13.39985 -3.8189,3.0645 -9.0151,6.54303 -12.4924,8.36279 l -2.5109,1.31403 -0.094,2.10104 -0.094,2.10107 2.0449,0.15498 c 1.1247,0.0852 3.6223,0.2341 5.5503,0.3308 3.5585,0.1785 9.1476,0.79287 11.5389,1.26841 0.723,0.14375 1.5637,0.27578 1.8682,0.29339 0.329,0.0192 1.9507,-1.27547 3.9981,-3.19157 z m -148.1858,-0.79479 c 0.1265,-0.85583 0.4485,-1.06692 3.6788,-2.41133 3.6815,-1.5322 6.2276,-3.15501 7.9759,-5.08338 1.3473,-1.48621 5.0519,-7.56608 5.0519,-8.29117 0,-0.23196 -0.5454,-0.35224 -1.5973,-0.35224 h -1.5972 l -6.7825,6.55984 c -3.7303,3.60791 -6.8718,6.72997 -6.9811,6.93792 -0.1092,0.20794 -0.2769,1.07749 -0.3726,1.93231 -0.1286,1.14791 -0.082,1.52376 0.1797,1.43771 0.1946,-0.0641 0.3946,-0.39239 0.4444,-0.72966 z m 174.2854,-8.69128 c 5.6116,-4.4171 10.4154,-8.03108 10.6752,-8.03108 1.0671,0 11.7557,-1.17228 11.9859,-1.31455 0.3866,-0.23893 3.1657,-7.47362 3.8432,-10.00485 0.8175,-3.05423 0.8723,-7.49239 0.1197,-9.69876 -0.5621,-1.64774 -2.7994,-4.39655 -3.5785,-4.39655 -0.2267,0 -1.819,0.66651 -3.5386,1.48112 l -3.1264,1.48112 2.483,0.79442 c 2.2474,0.71901 2.4918,0.86956 2.5756,1.58615 0.1114,0.95519 0.3036,0.94215 -6.8238,0.463 -2.7495,-0.18483 -6.1172,-0.23982 -7.5221,-0.1228 l -2.5437,0.21189 v 1.0764 1.07642 l 5.9155,0.66969 c 8.6943,0.9843 8.1065,0.85112 8.1065,1.83635 v 0.83904 l -5.6235,0.003 c -3.0928,0.003 -6.3242,0.0867 -7.1807,0.18956 -1.6246,0.19511 -1.7424,0.31175 -2.1908,2.16948 l -0.1823,0.75491 4.7404,0.5158 c 2.6072,0.28367 4.839,0.57616 4.9595,0.64991 0.1205,0.0738 0.2191,0.43969 0.2191,0.81317 0,0.61964 -0.1597,0.69427 -1.8258,0.85306 -1.0042,0.0957 -3.6426,0.26072 -5.8633,0.36668 l -4.0376,0.19266 -1.4462,1.9103 c -0.7953,1.05065 -1.3446,2.0005 -1.2206,2.11076 0.1241,0.11026 2.0659,0.75581 4.3153,1.4345 2.2493,0.67873 4.1942,1.33351 4.322,1.45505 0.1278,0.12154 -0.7761,0.66065 -2.0084,1.19797 l -2.2408,0.97699 -3.9666,-0.64704 -3.9665,-0.64703 -2.4236,2.41095 c -1.3329,1.32602 -2.4235,2.48705 -2.4235,2.58005 0,0.093 0.9202,0.61429 2.0448,1.15835 1.6667,0.80628 2.0449,1.11559 2.0449,1.67228 0,0.37568 -0.1822,0.75296 -0.4049,0.83844 -0.3629,0.13923 -4.1367,-0.25429 -6.0241,-0.6282 -0.5953,-0.11793 -1.3228,0.34617 -3.8811,2.47596 l -3.1486,2.62112 1.6903,1.07588 c 0.9296,0.59174 1.734,1.19032 1.7876,1.33024 0.054,0.13989 1.2366,0.25333 2.629,0.25204 l 2.5318,-0.003 z m -156.4103,6.18111 c 0,-0.056 -1.1072,-0.96915 -2.4603,-2.02923 -1.9854,-1.55542 -2.5234,-1.85138 -2.787,-1.53359 -0.2587,0.3116 0.1404,0.73506 1.9125,2.02921 1.2317,0.89951 2.4859,1.63543 2.7871,1.63543 0.3013,0 0.5477,-0.0458 0.5477,-0.10182 z m 109.2194,-3.30985 c 10.1477,-5.95115 19.2355,-14.21543 27.7227,-25.21071 1.2998,-1.68392 2.3317,-3.0932 2.2931,-3.13179 -0.038,-0.0386 -0.7818,0.0424 -1.6516,0.17987 -1.1358,0.17955 -1.7035,0.43386 -2.0147,0.9025 -2.8418,4.27989 -8.6043,10.60588 -12.5606,13.78872 -4.7215,3.79837 -10.3006,7.11088 -15.3718,9.12648 l -2.6398,1.04926 0.2118,2.11216 c 0.1165,1.16168 0.2199,2.35626 0.2298,2.65463 0.023,0.68957 0.2423,0.60426 3.7811,-1.47112 z m -22.7099,-5.94609 10.8229,-5.39443 -0.1573,-1.36484 c -0.1546,-1.34126 -1.3076,-4.01136 -2.1419,-4.96044 -0.3927,-0.44662 -0.5581,-0.42852 -2.2081,0.24193 -9.3424,3.79616 -17.2204,9.763 -21.3383,16.1616 l -0.47,0.73029 2.3349,-0.01 2.3348,-0.01 z m 20.4123,0.42324 c 7.2882,-2.96145 13.9657,-7.38569 19.5829,-12.97471 3.4315,-3.41425 7.7973,-8.86228 7.2057,-8.99193 -0.5821,-0.12759 -11.0914,1.85155 -17.7375,3.34039 -5.7612,1.29057 -15.1495,3.76042 -15.4548,4.06581 -0.081,0.0811 0.025,0.56964 0.2352,1.08568 1.1461,2.81063 2.6834,7.74037 3.253,10.43225 0.7555,3.5695 0.8127,3.79761 0.9524,3.79761 0.057,0 0.9411,-0.33978 1.9631,-0.7551 z m -126.0612,0.17941 c 0.186,-0.30093 -0.1446,-0.40105 -2.8965,-0.87717 -2.3104,-0.3997 -2.7946,-0.37884 -2.7946,0.12039 0,0.28041 0.4618,0.4825 1.3875,0.60722 0.7632,0.10283 1.5191,0.23196 1.6798,0.28695 0.6499,0.22254 2.4599,0.12774 2.6238,-0.13739 z m 22.4981,-2.44751 c 1.3279,-0.2406 2.0725,-0.51791 2.1252,-0.79148 0.066,-0.34145 -0.4141,-0.42112 -2.5361,-0.42112 h -2.6172 l -0.4592,0.96297 -0.4592,0.96297 0.9512,-0.1715 c 0.5231,-0.0943 1.871,-0.33817 2.9953,-0.54184 z m 26.6497,-1.10683 c 5.2702,-3.2257 12.7594,-6.75042 20.3471,-9.5762 4.0644,-1.51365 13.4022,-4.31472 16.6867,-5.00558 2.3102,-0.48592 2.5595,-0.76939 0.8958,-1.01885 -2.1403,-0.32097 -3.9589,0.0559 -9.9363,2.05886 -3.0611,1.02579 -11.9412,3.85773 -19.7336,6.29321 -7.7924,2.43549 -14.2317,4.48915 -14.3095,4.56369 -0.1501,0.14384 3.6077,3.89365 3.902,3.89365 0.095,0 1.0616,-0.54395 2.1478,-1.20878 z m -66.1646,-13.43072 c -0.1172,-0.10831 -2.2186,-1.91246 -4.6697,-4.00922 l -4.4565,-3.81232 -1.532,0.43301 c -3.1421,0.88803 -6.8953,2.9882 -8.8711,4.964 -1.0245,1.02456 -1.8628,2.03028 -1.8628,2.23493 0,0.20469 2.3872,2.84678 5.305,5.87132 l 5.3049,5.49919 5.4977,-5.49201 c 3.0238,-3.0206 5.4018,-5.58061 5.2845,-5.6889 z m 76.2681,3.82445 c 9.1883,-2.89558 18.3797,-5.83262 20.4253,-6.52676 l 3.7194,-1.26205 -5.4721,-0.19125 c -14.1416,-0.49424 -22.2803,0.0855 -30.364,2.16278 -3.1181,0.80127 -10.1776,3.29564 -10.7022,3.78145 -0.1359,0.1259 0.3242,0.93867 1.0225,1.80617 0.6983,0.86749 1.8601,2.45862 2.5818,3.53582 0.7218,1.07719 1.4858,1.95855 1.6978,1.95855 0.2121,0 7.9033,-2.3691 17.0915,-5.26471 z m -98.2571,-6.01712 c 1.5068,-2.21218 5.0626,-4.63956 8.9244,-6.09222 l 2.3667,-0.89023 -40.5787,-34.686316 -40.5787,-34.68634 h -3.8028 -3.8028 l 20.8497,21.073771 c 11.4674,11.590591 28.6713,28.994574 38.2311,38.675502 9.5597,9.680953 17.4471,17.614693 17.5274,17.630553 0.08,0.0159 0.4689,-0.44528 0.8637,-1.02472 z m 139.9018,-3.2948 c 0.2926,-0.18532 -0.1413,-0.57555 -1.6112,-1.44877 -6.1863,-3.67522 -13.5678,-5.6227 -21.4287,-5.65355 -5.6531,-0.0222 -6.198,0.10777 -7.4055,1.76605 -0.5458,0.74971 -1.4159,2.11896 -1.9335,3.04279 l -0.9411,1.67972 2.4379,0.0288 c 1.3409,0.0159 6.3159,0.19239 11.0556,0.39231 10.589,0.44659 19.2922,0.53116 19.8265,0.19261 z m -36.2547,-0.49925 c 1.0973,-0.13346 1.2977,-0.27661 1.6851,-1.20403 1.7478,-4.18285 6.9065,-9.66345 11.1385,-11.833283 4.0531,-2.078148 5.4351,-2.404758 10.1946,-2.409552 l 4.1071,-0.0044 9.1845,-6.846059 c 5.0516,-3.765322 9.3555,-6.9747 9.5645,-7.131923 0.262,-0.197238 0.5259,-0.139699 0.8512,0.185598 0.394,0.394009 0.4083,0.547592 0.087,0.934977 -0.2116,0.25494 -4.379,3.437803 -9.2609,7.07304 -4.8818,3.635237 -8.7725,6.700803 -8.646,6.812379 0.1266,0.111595 0.7778,0.502626 1.4472,0.868972 l 1.217,0.666095 5.9157,-3.703588 c 3.2536,-2.036986 6.1223,-3.663802 6.3748,-3.615189 1.1512,0.22172 0.5118,1.217793 -3.5113,5.470462 -2.451,2.590848 -4.3825,4.397376 -4.7016,4.397376 -1.0834,0 -0.9268,-0.887903 0.403,-2.28645 2.2819,-2.399938 2.1594,-2.462624 -0.9778,-0.500298 -1.6906,1.057504 -3.4821,2.430748 -3.9811,3.051656 l -0.9072,1.128927 2.7881,1.34794 c 1.5335,0.74138 2.8562,1.34797 2.9392,1.34797 0.4852,0 5.3236,-4.153888 7.6989,-6.609636 5.0658,-5.237488 7.6166,-9.9021 8.461,-15.472991 0.5715,-3.769593 -0.2517,-7.389159 -1.9303,-8.489087 -0.6527,-0.42767 -0.8093,-0.38782 -2.8286,0.72046 -1.1757,0.645252 -4.3004,2.521803 -6.9438,4.170117 -8.6297,5.380966 -13.6638,7.563725 -19.8457,8.605048 -7.0396,1.18581 -11.9048,4.565034 -19.5381,13.570607 -1.7022,2.008342 -4.3136,5.064272 -5.8029,6.790962 -1.4893,1.72669 -2.7078,3.20973 -2.7078,3.29562 0,0.16456 5.4025,-0.0738 7.5259,-0.33201 z m 39.6054,-1.05198 c -4.8815,-5.05744 -14.3181,-8.535014 -24.9052,-9.17802 l -3.1927,-0.193894 -1.2542,0.991935 -1.2541,0.991939 5.1021,0.18812 c 5.5263,0.20378 8.5435,0.68784 12.8171,2.05635 3.7261,1.19315 6.5673,2.52465 9.586,4.49224 1.3918,0.90723 2.8008,1.75189 3.1312,1.87699 1.1111,0.42077 1.0994,-0.0553 -0.03,-1.22566 z m -10.2508,-9.417296 c 0.4418,-0.553755 0.8034,-1.086478 0.8034,-1.183836 0,-0.09736 -0.8874,-0.594507 -1.9719,-1.104804 -1.7433,-0.820227 -2.3274,-0.940262 -5.0391,-1.035487 -3.2027,-0.112472 -5.8755,0.354656 -7.7283,1.350679 l -0.8894,0.478086 2.4831,0.225064 c 2.7202,0.246531 7.9676,1.215087 9.9738,1.840921 0.7001,0.218409 1.3387,0.4059 1.419,0.416637 0.08,0.01066 0.5075,-0.43353 0.9494,-0.98726 z m 64.8826,106.021506 c -0.4256,-1.10913 1.0317,-6.5177 2.5965,-9.63648 3.7563,-7.48663 11.0601,-13.41084 20.3669,-16.51987 1.5208,-0.50804 3.3612,-0.94259 4.0897,-0.96562 1.1594,-0.0367 1.3361,0.0386 1.4164,0.60347 0.1166,0.81992 -2.0933,7.42901 -3.8867,11.6238 -1.9315,4.51772 -5.8095,12.43757 -6.4645,13.20224 -0.5104,0.59576 -1.1463,0.69358 -9.0207,1.38795 -10.0096,0.88261 -8.8902,0.84514 -9.0976,0.30451 z m 9.5358,-2.03891 c 2.8117,-0.24264 5.6527,-0.51207 6.3133,-0.59877 l 1.2012,-0.15759 2.3905,-4.95644 c 3.7741,-7.82513 7.2125,-16.39928 6.9754,-17.39446 -0.059,-0.24535 -0.845,-0.10045 -2.6359,0.48554 -9.0773,2.97023 -15.9795,8.45609 -19.5346,15.52606 -0.9689,1.92667 -2.5973,6.68637 -2.5973,7.59155 0,0.17145 0.5584,0.21813 1.3877,0.11606 0.7631,-0.0939 3.688,-0.3693 6.4997,-0.61195 z" id="path2" sodipodi:nodetypes="ssscccccccssssscssssssssscssssssssscccssssscccccssssscsssssssssssssscsscccsssssssssssssssscccssssssssscccssssscsscsssssssssssssscsscssssssssscsssscssssssssssssscsssssscccccssssscccccssscccsscsssscsssscssssscccccsscsscssssssssssssscccccssscssscssssscssscsssssssssssscccssssssssssssssssssscssssssssssssscssssscsscssssscsscssscccsssssssssscccssscssscscsscssssssssscssssssscccccsscsssssscsssssssssssssssssssssscssssssscssssssssssscscssssscsssscssscscssscccsssssscssscsssscssssssssssscssscsssssssssssssssssssssssssssscccsssscssssssssssssssssscccsscccsssssssscsscsssscccssssscssssscccssssscssssssssscssscccccsssssscssscssssssssssssscccssssssssscssssssssscscsssssssssscsssssssssssscssscsssssssssssssssssssssscssscsscssssssssssssssssscsssssscscsssscssssssscsssscsssssssssssssccssscssscccccccsssssssscccccccsssssscccsssssssssscsssssssssssscsssscccssccsscssssscssssscccssssssscssccsssssssssssssscsssccssssccccssssscsssssssssssscccssssssssssssscsssscsssscssssssssscccccssssssssscssssssscssssssscssssssscsssssssssssssscccsssssssssscssssssssssssssscsssssss" /></svg>
