<?xml version="1.0" encoding="UTF-8" standalone="no"?>
<svg xml:space="preserve" width="1500" height="350" fill="none" version="1.1" id="svg10" sodipodi:docname="banner-dark.svg" inkscape:version="1.3.2 (091e20e, 2023-11-25, custom)" xmlns:inkscape="http://www.inkscape.org/namespaces/inkscape" xmlns:sodipodi="http://sodipodi.sourceforge.net/DTD/sodipodi-0.dtd" xmlns="http://www.w3.org/2000/svg" xmlns:svg="http://www.w3.org/2000/svg"><sodipodi:namedview id="namedview10" pagecolor="#505050" bordercolor="#ffffff" borderopacity="1" inkscape:showpageshadow="0" inkscape:pageopacity="0" inkscape:pagecheckerboard="1" inkscape:deskcolor="#505050" inkscape:current-layer="svg10" /><defs id="defs2"><filter id="b" width="1.5318391" height="1.5815362" x="-0.26591956" y="-0.29076811" style="color-interpolation-filters:sRGB"><feGaussianBlur result="result6" stdDeviation="7" id="feGaussianBlur1" /><feComposite in="SourceGraphic" in2="result6" operator="atop" result="result8" id="feComposite1" /><feComposite in="result8" in2="SourceAlpha" result="result9" id="feComposite2" /><feColorMatrix result="result10" values="1 0 0 0 0 0 1 0 0 0 0 0 1 0 0 0 0 0 1 0" id="feColorMatrix2" /><feBlend in="result10" in2="result6" id="feBlend2" /></filter></defs><path d="M24 0h1452a24 24 45 0 1 24 24v302a24 24 135 0 1-24 24H24a24 24 45 0 1-24-24V24A24 24 135 0 1 24 0" style="fill:#0b0d12;fill-opacity:1;fill-rule:evenodd;stroke-width:1" id="path2" /><g fill="#ffffff" style="display:inline" id="g8" transform="translate(2.2491322,-0.57899828)"><path d="m 557.854,204.468 h 13.207 l 16.674,-44.085 16.432,44.085 h 13.779 l -22.95,-57.778 h -13.699 z m 118.523,-57.863 v 33.596 c 0,15.353 -9.492,24.845 -24.763,24.845 -15.435,0 -25.012,-9.492 -25.012,-24.845 v -33.596 h 12.96 v 33.596 c 0,8.089 4.87,13.538 12.135,13.538 7.18,0 11.804,-5.283 11.804,-13.455 v -33.596 z m 62.431,57.788 h -14.61 L 713.963,185.49 h -8.337 v 18.903 h -12.959 v -57.78 h 23.608 c 13.866,0 21.792,6.19 21.792,18.902 0,9.74 -4.128,15.848 -11.64,18.49 z M 725.932,166.01 c 0,-6.357 -3.714,-8.75 -10.4,-8.75 h -9.989 v 17.665 h 9.988 c 6.604,0 10.401,-2.477 10.401,-8.915" class="c1" style="font-variant-ligatures:normal;stroke-width:0;stroke-miterlimit:2" id="path3" transform="translate(13.838)" sodipodi:nodetypes="cccccccccsssccssscccccccccsscccsccsc" /><path d="m 1791,911.84 -25.695,50.83 c 0,0 -12.216,-1.826 -12.075,-19.377 l 16.008,-31.452 H 1791 Z m -68.1,0 34.401,66.696 v 31.592 h -21.903 v -30.89 l -34.262,-67.399 z" style="font-variant-ligatures:normal" transform="matrix(0.58787,0,0,0.58787,-239.443,-389.356)" id="path4" /><path d="M 73.79,125.2 H 85.311 L 99.856,86.743 114.19,125.2 h 12.02 L 106.19,74.798 H 94.24 Z" class="c1" style="font-variant-ligatures:normal" transform="matrix(1.14634,0,0,1.14634,728.306,60.946)" id="path5" sodipodi:nodetypes="cccccccc" /><path d="m 1991.3,1010 h -24.853 l -17.411,-32.154 h -14.181 V 1010 h -22.044 v -98.288 h 40.158 c 23.588,0 37.069,10.532 37.069,32.155 0,16.568 -7.021,26.959 -19.799,31.452 z m -21.903,-65.291 c 0,-10.813 -6.318,-14.884 -17.693,-14.884 h -16.99 v 30.048 h 16.99 c 11.234,0 17.693,-4.212 17.693,-15.164" class="c1" style="font-variant-ligatures:normal" transform="matrix(0.58787,0,0,0.58787,-239.443,-389.356)" id="path6" /><path d="m 2103.7,1010.3 h -26.397 l -17.973,-28.224 c 2.807,-16.989 16.708,-15.024 16.708,-15.024 z" style="font-variant-ligatures:normal" transform="matrix(0.58787,0,0,0.58787,-239.443,-389.356)" id="path7" /><path d="m 2100.9,911.84 -62.764,74.279 v 24.009 H 2016.09 V 911.84 h 22.046 v 45.213 l 37.631,-45.213 z" style="font-variant-ligatures:normal" transform="matrix(0.58787,0,0,0.58787,-239.443,-389.356)" id="path8" /></g><g style="display:inline;fill:#02f383;fill-opacity:1" id="g10" transform="translate(14.215749,-0.57899828)"><path d="m 566.253,146.69 h -10.235 l -25.256,57.778 h 10.234 z m -27.686,0 h -10.235 l -25.256,57.778 h 10.234 z" style="font-variant-ligatures:normal;display:inline;opacity:0.2;fill:#02f383;fill-opacity:1;stroke-width:0.659186;filter:url(#b)" id="path9" /><path d="m 566.253,146.69 h -10.235 l -25.256,57.778 h 10.234 z m -27.686,0 h -10.235 l -25.256,57.778 h 10.234 z" style="font-variant-ligatures:normal;display:inline;fill:#02f383;fill-opacity:1;stroke-width:0.659186" id="path10" /></g></svg>
