<svg xmlns="http://www.w3.org/2000/svg" xmlns:xlink="http://www.w3.org/1999/xlink" xml:space="preserve" width="37" height="48.912"><defs><clipPath id="c" clipPathUnits="userSpaceOnUse"><use xlink:href="#a"/></clipPath><filter id="b" width="2.082" height="7.576" x="-.541" y="-3.288" style="color-interpolation-filters:sRGB"><feGaussianBlur result="result6" stdDeviation="4"/><feComposite in="SourceGraphic" in2="result6" operator="atop" result="result8"/><feComposite in="result8" in2="SourceAlpha" result="result9"/><feColorMatrix result="result10" values="1 0 0 0 0 0 1 0 0 0 0 0 1 0 0 0 0 0 1 0"/><feBlend in="result10" in2="result6"/></filter></defs><path d="M9.625 36.392a3.47 3.47 0 0 0 3.414 2.92H23.96a3.47 3.47 0 0 0 3.415-2.92z" style="fill:#a399ff;fill-opacity:1;fill-rule:evenodd;stroke-width:1;filter:url(#b)"/><path d="M9.625 36.392a3.47 3.47 0 0 0 3.414 2.92H23.96a3.47 3.47 0 0 0 3.415-2.92z" style="fill:#a399ff;fill-opacity:1;fill-rule:evenodd;stroke-width:1"/><g clip-path="url(#c)" style="display:inline;stroke-width:.864882" transform="scale(.1927)"><path id="a" d="M24 0h144a24 24 0 0 1 24 24v144a24 24 0 0 1-24 24H24a24 24 0 0 1-24-24V24A24 24 0 0 1 24 0" style="display:inline;mix-blend-mode:normal;fill:none;fill-opacity:1;stroke:none;stroke-width:0;stroke-linecap:round;stroke-linejoin:round;paint-order:stroke fill markers"/><path d="M0 0h192v192H0Z" style="display:inline;mix-blend-mode:normal;fill:#ecedf1;fill-opacity:1;stroke-width:0;stroke-linecap:round;stroke-linejoin:round;paint-order:stroke fill markers"/><g style="fill:none;stroke-width:12.29689266;stroke-dasharray:none;stroke:#404751;stroke-opacity:1"><path stroke-linecap="round" stroke-linejoin="round" stroke-width="12" d="m12.367 76-8 16c-10.19-4.246-20.742-8.492-31.96-15.8-3.912-2.55-6.284-6.88-6.378-11.548-.488-23.964 5.134-48.056 19.369-73.528 1.863-3.334 4.967-5.778 8.567-7.056C2.553-18.98 8.383-21.336 18.367-23l6 11s6-2 16-2 16 2 16 2l6-11c9.984 1.664 15.814 4.02 24.402 7.068 3.6 1.278 6.704 3.722 8.567 7.056 14.235 25.472 19.857 49.564 19.37 73.528-.095 4.668-2.467 8.999-6.38 11.548C97.11 83.508 86.559 87.754 76.367 92l-8-16m-68-8s20 10 40 10 40-10 40-10" style="stroke:#404751;fill:none;stroke-width:12.29689355;stroke-dasharray:none;stroke-opacity:1" transform="matrix(.59079 0 0 .59079 72.152 75.618)"/><path d="M82.023 91.512c-3.505 0-6.027 3.397-6.027 7.146s2.522 7.147 6.027 7.147 6.03-3.397 6.03-7.147-2.525-7.146-6.03-7.146zm27.952 0c-3.505 0-6.028 3.397-6.028 7.146s2.523 7.147 6.028 7.147 6.029-3.397 6.029-7.147-2.524-7.146-6.03-7.146z" style="display:inline;stroke-width:7.26486503;fill:none;stroke:#404751;stroke-dasharray:none;stroke-opacity:1"/></g></g></svg>