<svg xmlns="http://www.w3.org/2000/svg" xmlns:xlink="http://www.w3.org/1999/xlink" xml:space="preserve" width="37" height="48.912"><defs><clipPath id="c" clipPathUnits="userSpaceOnUse"><use xlink:href="#a"/></clipPath><filter id="b" width="2.082" height="7.576" x="-.541" y="-3.288" style="color-interpolation-filters:sRGB"><feGaussianBlur result="result6" stdDeviation="4"/><feComposite in="SourceGraphic" in2="result6" operator="atop" result="result8"/><feComposite in="result8" in2="SourceAlpha" result="result9"/><feColorMatrix result="result10" values="1 0 0 0 0 0 1 0 0 0 0 0 1 0 0 0 0 0 1 0"/><feBlend in="result10" in2="result6"/></filter></defs><path d="M9.625 36.392a3.47 3.47 0 0 0 3.414 2.92H23.96a3.47 3.47 0 0 0 3.415-2.92z" style="fill:#a399ff;fill-opacity:1;fill-rule:evenodd;stroke-width:1;filter:url(#b)"/><path d="M9.625 36.392a3.47 3.47 0 0 0 3.414 2.92H23.96a3.47 3.47 0 0 0 3.415-2.92z" style="fill:#a399ff;fill-opacity:1;fill-rule:evenodd;stroke-width:1"/><g clip-path="url(#c)" style="display:inline;stroke-width:.864882" transform="scale(.1927)"><path id="a" d="M24 0h144a24 24 0 0 1 24 24v144a24 24 0 0 1-24 24H24a24 24 0 0 1-24-24V24A24 24 0 0 1 24 0" style="display:inline;mix-blend-mode:normal;fill:none;fill-opacity:1;stroke:none;stroke-width:0;stroke-linecap:round;stroke-linejoin:round;paint-order:stroke fill markers"/><path d="M0 0h192v192H0Z" style="display:inline;mix-blend-mode:normal;fill:#ecedf1;fill-opacity:1;stroke-width:0;stroke-linecap:round;stroke-linejoin:round;paint-order:stroke fill markers"/><g style="fill:none;stroke:#404751;stroke-width:12.9953;stroke-linecap:round;stroke-dasharray:none;stroke-opacity:1" transform="matrix(.55904 0 0 .55904 42.329 42.329)"><circle cx="96" cy="96" r="30" style="fill:none;stroke:#404751;stroke-width:12.9953;stroke-linecap:round;stroke-dasharray:none;stroke-opacity:1"/><path d="M126 66v52m0 0c0 11 10 18 19 18 11 0 19-9.5 22.479-20.847" style="fill:none;stroke:#404751;stroke-width:12.9953;stroke-linecap:round;stroke-dasharray:none;stroke-opacity:1"/><path d="M116.045 167.233a74 74 0 0 1-83.784-33.639 74 74 0 0 1 11.095-89.6 74 74 0 0 1 89.458-12.187 74 74 0 0 1 34.659 83.367" style="fill:none;stroke:#404751;stroke-width:12.9953;stroke-linecap:round;stroke-dasharray:none;stroke-opacity:1"/></g></g></svg>