<svg xmlns="http://www.w3.org/2000/svg" xmlns:xlink="http://www.w3.org/1999/xlink" xml:space="preserve" width="37" height="48.912"><defs><clipPath id="c" clipPathUnits="userSpaceOnUse"><use xlink:href="#a"/></clipPath><filter id="b" width="2.082" height="7.576" x="-.541" y="-3.288" style="color-interpolation-filters:sRGB"><feGaussianBlur result="result6" stdDeviation="4"/><feComposite in="SourceGraphic" in2="result6" operator="atop" result="result8"/><feComposite in="result8" in2="SourceAlpha" result="result9"/><feColorMatrix result="result10" values="1 0 0 0 0 0 1 0 0 0 0 0 1 0 0 0 0 0 1 0"/><feBlend in="result10" in2="result6"/></filter></defs><path d="M9.625 36.392a3.47 3.47 0 0 0 3.414 2.92H23.96a3.47 3.47 0 0 0 3.415-2.92z" style="fill:#ffac66;fill-opacity:1;fill-rule:evenodd;stroke-width:1;filter:url(#b);opacity:1"/><path d="M9.625 36.392a3.47 3.47 0 0 0 3.414 2.92H23.96a3.47 3.47 0 0 0 3.415-2.92z" style="fill:#ffac66;fill-opacity:1;fill-rule:evenodd;stroke-width:1"/><g clip-path="url(#c)" style="display:inline;stroke-width:.864882" transform="scale(.1927)"><path id="a" d="M24 0h144a24 24 0 0 1 24 24v144a24 24 0 0 1-24 24H24a24 24 0 0 1-24-24V24A24 24 0 0 1 24 0" style="display:inline;mix-blend-mode:normal;fill:none;fill-opacity:1;stroke:none;stroke-width:0;stroke-linecap:round;stroke-linejoin:round;paint-order:stroke fill markers"/><path d="M0 0h192v192H0Z" style="display:inline;mix-blend-mode:normal;fill:#ecedf1;fill-opacity:1;stroke-width:0;stroke-linecap:round;stroke-linejoin:round;paint-order:stroke fill markers"/><path stroke="#000" stroke-linecap="round" stroke-linejoin="round" stroke-width="12" d="M111.34 137.64c.016-2.628.033-11.746.033-15.357 0-5.217-1.76-8.63-3.733-10.359 12.253-1.386 25.116-6.112 25.116-27.61 0-6.108-2.124-11.104-5.654-15.014.566-1.416 2.453-7.107-.548-14.81 0 0-4.61-1.504-15.115 5.742-4.397-1.246-9.097-1.862-13.772-1.886-4.675.025-9.375.641-13.772 1.886C73.389 52.986 68.78 54.49 68.78 54.49c-3 7.703-1.114 13.394-.548 14.81-3.53 3.91-5.654 8.906-5.654 15.014 0 21.498 12.863 26.224 25.116 27.61-1.973 1.728-3.734 5.142-3.734 10.36 0 3.61.017 12.728.033 15.355m-24.75-22.508c5.523.396 8.708 5.478 8.708 5.478 4.909 8.553 12.88 6.08 16.012 4.651" style="fill:none;stroke:#404751;stroke-width:7.26486;stroke-dasharray:none;stroke-opacity:1"/></g></svg>