<svg xmlns="http://www.w3.org/2000/svg" xmlns:xlink="http://www.w3.org/1999/xlink" xml:space="preserve" width="37" height="48.912"><defs><clipPath id="c" clipPathUnits="userSpaceOnUse"><use xlink:href="#a"/></clipPath><filter id="b" width="2.082" height="7.576" x="-.541" y="-3.288" style="color-interpolation-filters:sRGB"><feGaussianBlur result="result6" stdDeviation="4"/><feComposite in="SourceGraphic" in2="result6" operator="atop" result="result8"/><feComposite in="result8" in2="SourceAlpha" result="result9"/><feColorMatrix result="result10" values="1 0 0 0 0 0 1 0 0 0 0 0 1 0 0 0 0 0 1 0"/><feBlend in="result10" in2="result6"/></filter></defs><path d="M9.625 36.392a3.47 3.47 0 0 0 3.414 2.92H23.96a3.47 3.47 0 0 0 3.415-2.92z" style="fill:#ffac66;fill-opacity:1;fill-rule:evenodd;stroke-width:1;filter:url(#b);opacity:1"/><path d="M9.625 36.392a3.47 3.47 0 0 0 3.414 2.92H23.96a3.47 3.47 0 0 0 3.415-2.92z" style="fill:#ffac66;fill-opacity:1;fill-rule:evenodd;stroke-width:1"/><g clip-path="url(#c)" style="display:inline;stroke-width:.864882" transform="scale(.1927)"><path id="a" d="M24 0h144a24 24 0 0 1 24 24v144a24 24 0 0 1-24 24H24a24 24 0 0 1-24-24V24A24 24 0 0 1 24 0" style="display:inline;mix-blend-mode:normal;fill:none;fill-opacity:1;stroke:none;stroke-width:0;stroke-linecap:round;stroke-linejoin:round;paint-order:stroke fill markers"/><path d="M0 0h192v192H0Z" style="display:inline;mix-blend-mode:normal;fill:#ecedf1;fill-opacity:1;stroke-width:0;stroke-linecap:round;stroke-linejoin:round;paint-order:stroke fill markers"/><g style="stroke-width:6.94126;stroke:#404751;stroke-opacity:1"><path d="M132.593 60.283h7.31c8.703.004 15.758 6.854 15.76 15.305.003 8.454-7.053 15.31-15.76 15.314l-7.31-.004" style="display:inline;opacity:1;fill:none;stroke:#404751;stroke-width:6.27359;stroke-dasharray:none;stroke-opacity:1;paint-order:stroke fill markers" transform="matrix(1.15776 0 0 1.15825 -16.96 -15.189)"/><path stroke-linejoin="round" d="M-38 62v-88a6 6 0 0 1 6-6H74v94m0 0c-.005 9.939-23.595 17.997-52.203 17.997C-6.578 79.997-38 71.941-38 62" style="display:inline;fill:none;stroke:#404751;stroke-width:9.71774;stroke-dasharray:none;stroke-opacity:1" transform="matrix(.75654 0 0 .73874 80.566 78.274)"/><path stroke="#000" stroke-linejoin="round" stroke-width="12" d="M6.178 1.786c-6.578 0-12.983 3.35-12.983 12.635 0 9.144 15.176 22.546 24.805 31.793 9.635-9.247 24.805-22.65 24.805-31.793 0-9.284-6.4-12.635-12.97-12.635-5.131 0-9.044 3.979-11.835 8.164-2.803-4.205-6.704-8.164-11.822-8.164Z" style="fill:none;stroke:#404751;stroke-width:9.71778;stroke-dasharray:none;stroke-opacity:1" transform="matrix(.75654 0 0 .73874 80.566 78.274)"/></g></g></svg>