<svg xmlns="http://www.w3.org/2000/svg" xmlns:xlink="http://www.w3.org/1999/xlink" xml:space="preserve" width="37" height="48.912"><defs><clipPath id="c" clipPathUnits="userSpaceOnUse"><use xlink:href="#a"/></clipPath><filter id="b" width="2.082" height="7.576" x="-.541" y="-3.288" style="color-interpolation-filters:sRGB"><feGaussianBlur result="result6" stdDeviation="4"/><feComposite in="SourceGraphic" in2="result6" operator="atop" result="result8"/><feComposite in="result8" in2="SourceAlpha" result="result9"/><feColorMatrix result="result10" values="1 0 0 0 0 0 1 0 0 0 0 0 1 0 0 0 0 0 1 0"/><feBlend in="result10" in2="result6"/></filter></defs><path d="M9.625 36.392a3.47 3.47 0 0 0 3.414 2.92H23.96a3.47 3.47 0 0 0 3.415-2.92z" style="fill:#8172ff;fill-opacity:1;fill-rule:evenodd;stroke-width:1;filter:url(#b);opacity:1"/><path d="M9.625 36.392a3.47 3.47 0 0 0 3.414 2.92H23.96a3.47 3.47 0 0 0 3.415-2.92z" style="fill:#8172ff;fill-opacity:1;fill-rule:evenodd;stroke-width:1"/><g clip-path="url(#c)" style="display:inline;stroke-width:.864882" transform="scale(.1927)"><path id="a" d="M24 0h144a24 24 0 0 1 24 24v144a24 24 0 0 1-24 24H24a24 24 0 0 1-24-24V24A24 24 0 0 1 24 0" style="display:inline;mix-blend-mode:normal;fill:none;fill-opacity:1;stroke:none;stroke-width:0;stroke-linecap:round;stroke-linejoin:round;paint-order:stroke fill markers"/><path d="M0 0h192v192H0Z" style="display:inline;mix-blend-mode:normal;fill:#0b0d12;fill-opacity:1;stroke-width:0;stroke-linecap:round;stroke-linejoin:round;paint-order:stroke fill markers"/><g stroke="#000" stroke-linecap="round" stroke-linejoin="round" style="stroke-width:1.8;stroke-dasharray:none" transform="matrix(5.18919 0 0 5.18919 -18.875 -2.482)"><path stroke-width="62.27" d="M28.103 20.548a3.454 3.454 0 0 0-6.908 0m6.908 0v4.396m-6.908-4.396v4.396m-4.395-7.85v7.85" style="display:inline;fill:none;stroke:#fff;stroke-width:1.8;stroke-dasharray:none"/><circle cx="16.8" cy="13.641" r=".628" stroke-width="41.514" style="display:inline;fill:none;stroke:#fff;stroke-width:1.8;stroke-dasharray:none"/></g></g></svg>