<svg xmlns="http://www.w3.org/2000/svg" xmlns:xlink="http://www.w3.org/1999/xlink" xml:space="preserve" width="37" height="48.912"><defs><clipPath id="c" clipPathUnits="userSpaceOnUse"><use xlink:href="#a"/></clipPath><filter id="b" width="2.082" height="7.576" x="-.541" y="-3.288" style="color-interpolation-filters:sRGB"><feGaussianBlur result="result6" stdDeviation="4"/><feComposite in="SourceGraphic" in2="result6" operator="atop" result="result8"/><feComposite in="result8" in2="SourceAlpha" result="result9"/><feColorMatrix result="result10" values="1 0 0 0 0 0 1 0 0 0 0 0 1 0 0 0 0 0 1 0"/><feBlend in="result10" in2="result6"/></filter></defs><path d="M9.625 36.392a3.47 3.47 0 0 0 3.414 2.92H23.96a3.47 3.47 0 0 0 3.415-2.92z" style="fill:#ffac66;fill-opacity:1;fill-rule:evenodd;stroke-width:1;filter:url(#b);opacity:1"/><path d="M9.625 36.392a3.47 3.47 0 0 0 3.414 2.92H23.96a3.47 3.47 0 0 0 3.415-2.92z" style="fill:#ffac66;fill-opacity:1;fill-rule:evenodd;stroke-width:1"/><g clip-path="url(#c)" style="display:inline;stroke-width:.864882" transform="scale(.1927)"><path id="a" d="M24 0h144a24 24 0 0 1 24 24v144a24 24 0 0 1-24 24H24a24 24 0 0 1-24-24V24A24 24 0 0 1 24 0" style="display:inline;mix-blend-mode:normal;fill:none;fill-opacity:1;stroke:none;stroke-width:0;stroke-linecap:round;stroke-linejoin:round;paint-order:stroke fill markers"/><path d="M0 0h192v192H0Z" style="display:inline;mix-blend-mode:normal;fill:#ecedf1;fill-opacity:1;stroke-width:0;stroke-linecap:round;stroke-linejoin:round;paint-order:stroke fill markers"/><g style="stroke-width:.379217;stroke-dasharray:none;stroke:#404751;stroke-opacity:1"><path d="m124.368 154.296-.668 2.49a.794.794 150 0 1-.972.562l-2.491-.667a.794.794 60 0 1-.562-.973l.668-2.49a.794.794 150 0 1 .972-.562l2.491.668a.794.794 60 0 1 .562.972z" style="fill:none;fill-rule:evenodd;stroke:#404751;stroke-width:.459438;stroke-dasharray:none;stroke-opacity:1" transform="scale(15.8125)rotate(30 341.955 -135.83)"/><path d="M120.723 154.476h.256a.72.72 157.5 0 0 .512-.212l1.4-1.4a.72.72 157.5 0 1 .511-.211h.256m0 1.823h-.256a.72.72 0 0 1-.512-.212l-1.399-1.4a.72.72 0 0 0-.512-.211h-.256" style="fill:none;stroke:#404751;stroke-width:.379217;stroke-dasharray:none;stroke-opacity:1;paint-order:stroke fill markers" transform="matrix(-19.15755 0 0 19.15755 2436.873 -2845.914)"/></g></g></svg>