<svg xmlns="http://www.w3.org/2000/svg" xmlns:xlink="http://www.w3.org/1999/xlink" xml:space="preserve" width="37" height="48.912"><defs><clipPath id="c" clipPathUnits="userSpaceOnUse"><use xlink:href="#a"/></clipPath><filter id="b" width="2.082" height="7.576" x="-.541" y="-3.288" style="color-interpolation-filters:sRGB"><feGaussianBlur result="result6" stdDeviation="4"/><feComposite in="SourceGraphic" in2="result6" operator="atop" result="result8"/><feComposite in="result8" in2="SourceAlpha" result="result9"/><feColorMatrix result="result10" values="1 0 0 0 0 0 1 0 0 0 0 0 1 0 0 0 0 0 1 0"/><feBlend in="result10" in2="result6"/></filter></defs><path d="M9.625 36.392a3.47 3.47 0 0 0 3.414 2.92H23.96a3.47 3.47 0 0 0 3.415-2.92z" style="fill:#8172ff;fill-opacity:1;fill-rule:evenodd;stroke-width:1;filter:url(#b);opacity:1"/><path d="M9.625 36.392a3.47 3.47 0 0 0 3.414 2.92H23.96a3.47 3.47 0 0 0 3.415-2.92z" style="fill:#8172ff;fill-opacity:1;fill-rule:evenodd;stroke-width:1"/><g clip-path="url(#c)" style="display:inline;stroke-width:.864882" transform="scale(.1927)"><path id="a" d="M24 0h144a24 24 0 0 1 24 24v144a24 24 0 0 1-24 24H24a24 24 0 0 1-24-24V24A24 24 0 0 1 24 0" style="display:inline;mix-blend-mode:normal;fill:none;fill-opacity:1;stroke:none;stroke-width:0;stroke-linecap:round;stroke-linejoin:round;paint-order:stroke fill markers"/><path d="M0 0h192v192H0Z" style="display:inline;mix-blend-mode:normal;fill:#0b0d12;fill-opacity:1;stroke-width:0;stroke-linecap:round;stroke-linejoin:round;paint-order:stroke fill markers"/><g style="stroke-width:1.05783;stroke-dasharray:none"><path stroke-linecap="round" d="M18.5 14.827v2.452m2.408-2.452v2.452" style="fill:none;stroke:#fff;stroke-width:1.05782632;stroke-dasharray:none" transform="matrix(6.89768 0 0 6.83791 -31.607 -31.054)"/><path d="M13.835 20.957a.451.46 0 0 0 .451.46h1.355a.451.46 0 0 1 .451.46v1.992l2.408-2.452h1.806l2.86-2.912v-5.518a.451.46 0 0 0-.452-.46h-7.525l-1.354 1.38z" style="fill:none;stroke:#fff;stroke-width:1.05783;stroke-dasharray:none" transform="matrix(6.89768 0 0 6.83791 -31.607 -31.054)"/></g></g></svg>